<svg id="close_icon_search" data-name="close icon search" xmlns="http://www.w3.org/2000/svg" width="30" height="29.999" viewBox="0 0 30 29.999">
  <path id="Path_82" data-name="Path 82" d="M13.215,15.547h0L15.7,13.084,6.434,3.8A1.777,1.777,0,0,0,3.949,6.337Z" transform="translate(-3.415 -3.29)" fill="#6c6d71"/>
  <path id="Path_83" data-name="Path 83" d="M20.13,17.5l-2.44,2.451,9.243,9.243a1.757,1.757,0,1,0,2.485-2.485Z" transform="translate(-0.013 -0.02)" fill="#6c6d71"/>
  <path id="Path_84" data-name="Path 84" d="M32.867,3.954a1.86,1.86,0,0,0-2.627,0L3.882,30.215a1.841,1.841,0,0,0,.083,2.511,1.86,1.86,0,0,0,2.521.105L32.867,6.571a1.842,1.842,0,0,0,0-2.617Z" transform="translate(-3.413 -3.274)" fill="#6c6d71"/>
</svg>
