<svg xmlns="http://www.w3.org/2000/svg" xmlns:xlink="http://www.w3.org/1999/xlink" width="70" height="52" viewBox="0 0 70 52">
  <defs>
    <linearGradient id="linear-gradient" y1="0.5" x2="1" y2="0.5" gradientUnits="objectBoundingBox">
      <stop offset="0" stop-color="#fae660"/>
      <stop offset="0.112" stop-color="#fbd35a"/>
      <stop offset="0.341" stop-color="#feb14f"/>
      <stop offset="0.652" stop-color="#ed775e"/>
      <stop offset="1" stop-color="#ca536d"/>
    </linearGradient>
    <linearGradient id="linear-gradient-2" y1="0.5" x2="1" y2="0.5" gradientUnits="objectBoundingBox">
      <stop offset="0" stop-color="#ca536d"/>
      <stop offset="0.348" stop-color="#ed775e"/>
      <stop offset="0.659" stop-color="#feb14f"/>
      <stop offset="0.888" stop-color="#fbd35a"/>
      <stop offset="1" stop-color="#fae660"/>
    </linearGradient>
    <linearGradient id="linear-gradient-3" x1="0.5" y1="1" x2="0.5" gradientUnits="objectBoundingBox">
      <stop offset="0" stop-color="#666"/>
      <stop offset="1" stop-color="#4b69af"/>
    </linearGradient>
  </defs>
  <g id="Logo" transform="translate(-416.305 -137.57)">
    <path id="EqualizerLeft" d="M424.648,331.55v3.884a13.114,13.114,0,0,0-1.94.17V331.55a.672.672,0,0,1,.284-.528,1.128,1.128,0,0,1,.686-.219A.881.881,0,0,1,424.648,331.55Zm2.263-2.879a1.049,1.049,0,0,0-.686.246.789.789,0,0,0-.284.6v5.939c.38.021.735.054,1.064.1.3.041.594.093.876.155v-6.192A.913.913,0,0,0,426.912,328.671Zm-6.467,4.417a1.2,1.2,0,0,0-.686.2.6.6,0,0,0-.284.485v3.582a4.727,4.727,0,0,1,.923-.568,7.119,7.119,0,0,1,1.017-.386v-2.628C421.415,333.394,420.981,333.088,420.445,333.088Zm9.7-6.532a1.026,1.026,0,0,0-.686.255.83.83,0,0,0-.284.617v8.219h.948a1.975,1.975,0,0,1,.992.262v-8.482A.925.925,0,0,0,430.145,326.556Z" transform="translate(-2.965 -176.779)" fill="url(#linear-gradient)"/>
    <path id="EqualizerRight" d="M1328.868,672.35v8.758a.971.971,0,0,1-1.94,0v-7.1a1.52,1.52,0,0,0,.154-.668v-.992Zm1.968,1.981-.657-1.981h-.017v6.762a.971.971,0,0,0,1.94,0v-3.719A1.591,1.591,0,0,1,1330.836,674.331Zm-5.41.763h0a10.666,10.666,0,0,1-1.73.321v7.5a.972.972,0,0,0,1.94,0v-7.884C1325.566,675.054,1325.5,675.075,1325.426,675.095Zm9.068.392h-1.1V677.4a.988.988,0,0,0,1.94,0v-2.113A1.876,1.876,0,0,1,1334.494,675.487Z" transform="translate(-849.03 -500.245)" fill="url(#linear-gradient-2)"/>
    <path id="TextSubrica" d="M486.074,347.129l-.852-2.408-3.748-10.585a.645.645,0,0,0-.606-.43h-2.861a1.6,1.6,0,0,1,.083.509v1.6a1.615,1.615,0,0,1-1.611,1.615,1.587,1.587,0,0,1-.294-.027l-2.48,6.844a6.062,6.062,0,0,0,1.2-.119,5.52,5.52,0,0,0,.978-.292c.045-.018.09-.034.137-.048a1.588,1.588,0,0,1,.464-.069,1.609,1.609,0,0,1,1.456.929,1.454,1.454,0,0,1,.068.17h3.4a.636.636,0,0,1,.216.038.645.645,0,0,1,.4.412l.725,2.279a.641.641,0,0,0,.34.388.63.63,0,0,0,.273.061h2.109A.646.646,0,0,0,486.074,347.129Zm-5.791-4.785h-1.909a.647.647,0,0,1-.615-.837l.975-3.192a.7.7,0,0,1,.069-.156.65.65,0,0,1,.062-.085.637.637,0,0,1,.484-.216.647.647,0,0,1,.373.116.678.678,0,0,1,.079.065c.012.012.024.025.035.038a.634.634,0,0,1,.088.136.674.674,0,0,1,.042.109l.934,3.193A.646.646,0,0,1,480.283,342.344Zm-6.412-6.356a6.737,6.737,0,0,1,1.721.213,5.778,5.778,0,0,1,.648.21.652.652,0,0,0,.239.045l.049,0a.649.649,0,0,0,.225-.059c.019-.009.037-.019.054-.029a.636.636,0,0,0,.221-.213c.009-.015.017-.03.025-.046a.635.635,0,0,0,.071-.3v-1.6a.649.649,0,0,0-.469-.623l-.087-.024a11.079,11.079,0,0,0-2.955-.35,7.357,7.357,0,0,0-5.47,2.132c-.143.145-.279.294-.407.448v10.074c.056.063.114.126.174.188a6.353,6.353,0,0,0,3.847,1.849,9.635,9.635,0,0,0,1.3.084h.169a13.353,13.353,0,0,0,1.492-.094,9.29,9.29,0,0,0,1.182-.22,6.7,6.7,0,0,0,.749-.237l.074-.028a.642.642,0,0,0,.4-.6v-1.481a.649.649,0,0,0-.04-.228.756.756,0,0,0-.04-.086l-.016-.027c-.011-.018-.023-.035-.035-.052s-.019-.023-.029-.034l-.012-.014a.643.643,0,0,0-.2-.145c-.019-.009-.038-.017-.057-.024l-.047-.015a.636.636,0,0,0-.409.025,6.543,6.543,0,0,1-1.522.408,7.114,7.114,0,0,1-1.025.072c-.113,0-.225,0-.335-.01a4.8,4.8,0,0,1-.973-.149,3.764,3.764,0,0,1-1.816-1.072,4.616,4.616,0,0,1-1.16-3.3,4.707,4.707,0,0,1,1.23-3.427A4.306,4.306,0,0,1,473.87,335.988Zm-2.564-6.132c0-.015-.005-.03-.009-.045s-.007-.025-.011-.038a.182.182,0,0,0-.007-.02.59.59,0,0,0-.04-.091c-.006-.012-.014-.024-.021-.036l-.011-.017c-.009-.014-.019-.028-.03-.043l-4.375-5.656a1.776,1.776,0,0,0-1.4-.7q-.076,0-.153,0c-.042,0-.083.007-.124.013h0c-.027,0-.054.008-.081.013s-.055.01-.082.017-.054.012-.08.02l-.069.02a.57.57,0,0,0-.064.022l-.043.016-.041.016-.037.016-.051.023a.05.05,0,0,0-.015.007l-.055.027-.033.018-.041.023-.026.015-.047.029a1.579,1.579,0,0,0-.165.122c-.014.01-.026.021-.039.033s-.042.037-.062.056-.04.039-.059.059-.038.041-.056.062-.036.043-.053.066-.028.036-.041.055-.017.024-.026.037l-.035.055-.039.067c-.017.03-.033.061-.047.093a.391.391,0,0,0-.021.044c0,.01-.009.019-.013.028-.021.05-.04.1-.057.155l0,.01c-.008.026-.015.053-.022.081s-.015.059-.021.09-.008.042-.011.063-.006.039-.008.06-.006.043-.008.065-.006.065-.007.1,0,.06,0,.089V331.6a4.189,4.189,0,0,1,.737,2.379v12.933a4.189,4.189,0,0,1-.737,2.379v4.06a5.066,5.066,0,0,0-1.907-.37,5.122,5.122,0,0,0-5.109,5.257c0,.052,0,.1.006.156,0,.008,0,.016,0,.024,0,.039,0,.079.008.118,0,.015,0,.03,0,.045,0,.036.006.072.011.108,0,.015,0,.03.005.045q.009.072.019.144c.007.05.015.1.025.151,0,.008,0,.017.005.026.007.038.014.076.023.113,0,.016.006.031.01.046s.012.055.019.082.01.043.015.065c.011.045.023.089.035.133q.034.12.073.239c.026.078.054.156.084.233s.061.153.095.228c.017.038.034.075.051.112s.035.074.054.11.037.073.056.109c.032.06.065.118.1.177q.017.031.037.062c.037.063.077.124.117.185.021.032.043.065.066.1s.046.067.071.1a5.177,5.177,0,0,0,.387.468l.084.088a5.209,5.209,0,0,0,.64.557l.091.066q.2.143.418.265c.035.02.071.04.107.059l.095.05.123.061.111.051c.037.017.073.033.11.048l.116.047.115.043c.077.028.155.054.234.079l.114.034.129.035.117.028c.045.01.09.02.135.028l.111.021.124.021.125.017.125.014c.043,0,.084.008.127.011l.1.007.058,0,.093,0,.129,0h.065a5.126,5.126,0,0,0,5.044-5.133V329.292l3.688,1.284a.666.666,0,0,0,.219.038.586.586,0,0,0,.131-.014.386.386,0,0,0,.054-.015l.015,0c.017-.006.034-.013.051-.02a.648.648,0,0,0,.2-.145c.009-.009.018-.019.026-.029l.024-.03c.008-.01.015-.021.023-.032l.021-.033.021-.038c.006-.013.012-.026.018-.039s.01-.025.015-.038.009-.026.013-.04.008-.032.012-.048a.608.608,0,0,0,.011-.076c0-.025,0-.048,0-.073A.582.582,0,0,0,471.306,329.857Zm-35.066,3.954a.589.589,0,0,1,.079-.044A.523.523,0,0,0,436.241,333.811Zm5.881,5.171a1.467,1.467,0,0,0,.133-.127C442.213,338.9,442.168,338.941,442.121,338.982Zm.133-.127a1.466,1.466,0,0,0,.116-.138A1.678,1.678,0,0,1,442.255,338.855Zm-5.935-5.088a.861.861,0,0,0-.662-.31h-1.475a.866.866,0,0,0-.864.868v7.54q0,3.347-2.648,3.348-2.7,0-2.7-3.467v-7.42a.837.837,0,0,0-.006-.107h0a.866.866,0,0,0-.858-.761h-.871a1.519,1.519,0,0,1,.167.7v1.665a1.513,1.513,0,0,1-1.508,1.513,1.361,1.361,0,0,1-.136-.007v2.215a6.219,6.219,0,0,1,1,.838,4.546,4.546,0,0,1,.945,1.475,5.616,5.616,0,0,1-.248,4.357c-.055.1-.113.2-.175.29a5.683,5.683,0,0,0,4.271,1.494,5.855,5.855,0,0,0,4.43-1.558,4.81,4.81,0,0,0,.966-1.5,8.772,8.772,0,0,0,.575-3.374v-7.232A.869.869,0,0,0,436.32,333.767Zm9.4,7.68-.052-.052-.017-.017,0,0-.03-.028-.006-.006c-.046-.044-.093-.086-.141-.127l-.046-.038-.067-.054-.053-.041-.021-.016-.037-.027h0l-.082-.057-.078-.051-.046-.029-.1-.061-.017-.009c-.022-.014-.046-.027-.07-.039l-.088-.045-.1-.05-.014-.006-.045-.02-.095-.041-.109-.043-.113-.041-.1-.034-.015,0-.067-.02-.077-.023-.1-.025-.087-.021c-.057-.014-.115-.026-.173-.038l-.092-.017-.1-.016c-.062-.01-.124-.019-.187-.027v-.039l.118-.035.071-.022.1-.032.046-.016h0l.1-.037.012-.005.133-.054.005,0c.036-.016.073-.032.107-.048l.009,0,.032-.015.114-.056.006,0,.013-.006.113-.061c.039-.021.078-.044.116-.067l.009-.005.005,0,.008,0,.1-.061.006,0,.012-.008.017-.012c.033-.021.066-.044.1-.067s.077-.056.114-.085l0,0,.014-.011c.026-.02.052-.041.078-.062l.008-.006.028-.023.092-.08q.107-.1.208-.2c.034-.035.067-.07.1-.106a2.933,2.933,0,0,0,.779-2.023,2.824,2.824,0,0,0-1.28-2.471l-.081-.054-.058-.036-.037-.023-.074-.043-.049-.028-.007,0-.053-.029-.109-.056-.086-.041-.088-.039-.031-.014-.086-.036-.106-.042-.007,0-.015-.005-.078-.028-.1-.036-.047-.016c-.07-.023-.142-.045-.216-.065l-.135-.036-.127-.031-.122-.027-.008,0q-.15-.032-.307-.058l-.084-.014-.051-.008-.158-.022h-.01l-.149-.017h-.01l-.053-.006-.127-.012c-.089-.008-.18-.015-.272-.021l-.139-.008-.135-.006-.23-.006H437.38a1.831,1.831,0,0,1,.107.619v7.232a8.072,8.072,0,0,1-1.54,5.246v.543a.645.645,0,0,0,.644.647h4.971l.134,0,.074,0,.087,0,.135-.007.112-.008.111-.009.109-.01c.072-.007.144-.016.216-.025l.055-.007.1-.014.12-.019.144-.026.1-.02.088-.019.01,0h.005l.077-.018.008,0,.073-.017.015,0,.086-.023c.024-.006.048-.013.071-.02l.1-.029.078-.024c.092-.029.182-.061.27-.094l.079-.031.066-.026.017-.008.1-.041.024-.01.035-.016c.044-.021.088-.041.131-.063l.022-.011c.036-.017.071-.036.106-.056l.053-.028.116-.067.012-.008c.04-.023.079-.048.117-.072l.012-.008.007,0c.045-.03.09-.059.134-.091s.077-.055.115-.084l.03-.023.037-.028.079-.063a3.819,3.819,0,0,0,1.4-3.114A3.157,3.157,0,0,0,445.721,341.447Zm-6.571-4.723a.645.645,0,0,1,.644-.647h.556q2.341,0,2.341,1.574c0,.031,0,.062,0,.092,0,.006,0,.014,0,.02v0c0,.03,0,.06-.006.089s0,.044-.007.066l0,.013c0,.01,0,.02,0,.03s-.007.045-.011.067a.016.016,0,0,1,0,.005c0,.009,0,.019-.005.027-.005.027-.011.054-.017.08h0c-.007.028-.014.054-.022.081,0,.008,0,.016-.008.024s-.014.045-.022.067-.005.015-.008.022-.012.03-.018.045-.012.028-.017.042l-.013.027c-.007.016-.015.032-.024.049v0c-.01.021-.022.043-.034.063a1.534,1.534,0,0,1-.1.149,1.678,1.678,0,0,1-.116.138c-.042.044-.086.086-.133.127a2.342,2.342,0,0,1-1.562.483h-.765a.645.645,0,0,1-.644-.647Zm4.1,7.058s0,.007,0,.011a.152.152,0,0,1,0,.017c0,.022,0,.044,0,.066,0,0,0,.006,0,.008l0,.03a.012.012,0,0,0,0,0c0,.031-.007.062-.012.092s-.009.061-.015.092c0,.005,0,.01,0,.014a1.769,1.769,0,0,1-.048.19c-.008.026-.017.053-.027.079l0,0a.2.2,0,0,1-.01.025c-.007.019-.015.039-.023.058s-.01.024-.015.035h0c-.009.021-.019.041-.03.061l-.016.029a.014.014,0,0,1,0,0c-.008.017-.017.034-.028.05s-.029.048-.045.07a.466.466,0,0,1-.03.044l0,0a.219.219,0,0,1-.021.029l0,0-.027.035h0a.294.294,0,0,1-.025.031h0c-.014.016-.026.032-.041.047l-.008.01c-.015.017-.03.033-.047.049s-.041.041-.062.06-.05.045-.076.066a2.659,2.659,0,0,1-1.741.519h-1.092a.645.645,0,0,1-.644-.647V342.5a.645.645,0,0,1,.644-.647h1.112a2.736,2.736,0,0,1,1.731.488c.023.017.044.036.066.054l.026.023.036.034c.015.014.03.028.043.043a.416.416,0,0,1,.029.03v0a.126.126,0,0,1,.018.02c.015.016.028.032.042.048l0,0a.2.2,0,0,1,.015.019.452.452,0,0,1,.035.046.164.164,0,0,1,.018.025c.016.023.032.046.046.069s.032.053.046.08.022.043.032.065l0,.009a.179.179,0,0,1,.01.023.31.31,0,0,1,.014.031l.006.016c.007.016.013.031.019.047s.014.036.02.055l.008.026c.007.023.014.047.021.071a.02.02,0,0,0,0,.006c.008.031.015.063.022.094a.02.02,0,0,0,0,.006c.005.027.01.054.014.082l0,.027c0,.022.006.044.008.066a.018.018,0,0,1,0,.006c0,.008,0,.017,0,.025,0,.025,0,.05.005.074a.146.146,0,0,1,0,.017v.007c0,.032,0,.063,0,.1S443.256,343.752,443.255,343.782Zm-1.134-4.8a1.467,1.467,0,0,0,.133-.127C442.213,338.9,442.168,338.941,442.121,338.982Zm.133-.127a1.466,1.466,0,0,0,.116-.138A1.678,1.678,0,0,1,442.255,338.855Zm-16.216,4.353c-.01-.1-.023-.2-.039-.292-.011-.063-.023-.125-.036-.186-.006-.03-.014-.061-.021-.091q-.022-.09-.048-.177c-.008-.029-.017-.058-.027-.086-.019-.057-.039-.113-.061-.167a3.566,3.566,0,0,0-.744-1.161q-.143-.149-.3-.29a5.759,5.759,0,0,0-.863-.622l-.1-.06a12.481,12.481,0,0,0-1.43-.7q-.625-.259-1.12-.5a5.673,5.673,0,0,1-.843-.5,2.158,2.158,0,0,1-.536-.538,1.135,1.135,0,0,1-.189-.642,1.076,1.076,0,0,1,.169-.593,1.359,1.359,0,0,1,.313-.34,1.634,1.634,0,0,1,.164-.114,2.535,2.535,0,0,1,.754-.294,3.857,3.857,0,0,1,.53-.083c.147-.014.3-.021.461-.021a6.323,6.323,0,0,1,.838.059,6.665,6.665,0,0,1,.888.184h0a6.209,6.209,0,0,1,.866.313l.008,0a.565.565,0,0,0,.091.032.552.552,0,0,0,.136.017.546.546,0,0,0,.415-.191c.011-.013.022-.027.032-.041a.512.512,0,0,0,.028-.045.4.4,0,0,0,.024-.048.549.549,0,0,0,.044-.218v-1.665a.544.544,0,0,0-.35-.509l-.03-.011c-.06-.019-.12-.038-.182-.054a7.835,7.835,0,0,0-.825-.192c-.064-.012-.129-.023-.2-.034q-.424-.066-.911-.1t-1.058-.034c-.077,0-.154,0-.23,0a8.982,8.982,0,0,0-1.913.242l-.019,0a5.7,5.7,0,0,0-1.287.477,4.8,4.8,0,0,0-.474.281,3.806,3.806,0,0,0-1.215,1.32,3.187,3.187,0,0,0-.242.554,4.271,4.271,0,0,0-.2,1.364,3.73,3.73,0,0,0,.818,2.431,6.222,6.222,0,0,0,2.484,1.7q.655.27,1.22.528a6.725,6.725,0,0,1,.977.538,2.566,2.566,0,0,1,.65.608,1.239,1.239,0,0,1,.238.747,1.147,1.147,0,0,1-.149.573,1.329,1.329,0,0,1-.451.458,2.48,2.48,0,0,1-.754.3,4.518,4.518,0,0,1-1.056.109,6.065,6.065,0,0,1-3.1-.866.533.533,0,0,0-.277-.078.544.544,0,0,0-.377.153l-.019.019c-.012.012-.023.026-.034.039a.542.542,0,0,0-.113.334v1.787a.544.544,0,0,0,.328.5,7.112,7.112,0,0,0,1.5.443,12.023,12.023,0,0,0,2.227.2,10.352,10.352,0,0,0,2.167-.219,5.279,5.279,0,0,0,1.8-.722,3.647,3.647,0,0,0,.655-.541,3.694,3.694,0,0,0,.57-.774l.037-.069a4.15,4.15,0,0,0,.415-1.939Q426.064,343.458,426.039,343.208Z" transform="translate(0 -173.68)" fill="url(#linear-gradient-3)"/>
    <path id="Path_605" data-name="Path 605" d="M871.1,440.984a3.227,3.227,0,0,0-2.493-1.174h-7.575a4.184,4.184,0,0,1-2.5.825h-1.19l.709,1.672a1.615,1.615,0,0,1-2.364,1.99l-1.119-.72a3.83,3.83,0,0,1,.888,2.538,3.881,3.881,0,0,1-1.032,2.673,4.955,4.955,0,0,1-.393.389,4.484,4.484,0,0,1,.806.656,4.1,4.1,0,0,1,1.187,2.958,4.757,4.757,0,0,1-1.76,3.864,5.509,5.509,0,0,1-1.443.846,3.234,3.234,0,0,0,2.852,1.708h2.654l-1.28,3.021a.637.637,0,0,0,.213.774.664.664,0,0,0,.165.089.619.619,0,0,0,.218.039.64.64,0,0,0,.35-.106l5.934-3.817h4.679a3.232,3.232,0,0,0,3.233-3.233V443.043A3.221,3.221,0,0,0,871.1,440.984Zm-1.54,15.623h-2.151a.646.646,0,0,1-.553-.312l-2.033-3.364q-.248-.418-.478-.747a4.185,4.185,0,0,0-.464-.563,1.833,1.833,0,0,0-.488-.358,1.235,1.235,0,0,0-.553-.125h-.221a.647.647,0,0,0-.647.647v4.176a.646.646,0,0,1-.647.647h-1.924a.647.647,0,0,1-.647-.647V442.967a.647.647,0,0,1,.647-.647h4.454q5.2,0,5.2,3.886a4.03,4.03,0,0,1-.229,1.38,3.837,3.837,0,0,1-.648,1.141,4.081,4.081,0,0,1-1.011.876,5.21,5.21,0,0,1-1.32.578v.04a2.032,2.032,0,0,1,.618.323,4.4,4.4,0,0,1,.578.523,7.411,7.411,0,0,1,.533.643q.254.343.464.673l2.064,3.229A.647.647,0,0,1,869.563,456.607Zm-3.89-10a2,2,0,0,1-.638,1.5,2.313,2.313,0,0,1-1.664.6h-.748a.647.647,0,0,1-.647-.647v-2.682a.647.647,0,0,1,.647-.647h.808Q865.672,444.732,865.673,446.6Z" transform="translate(-408.466 -282.727)" fill="#1e7ac1"/>
    <path id="BackgroundAlef" d="M707.322,137.57H694.388a3.234,3.234,0,0,0-3.233,3.233v12.933a3.233,3.233,0,0,0,3.233,3.233h4.679l1.819,1.17.815.524,3.3,2.123a.64.64,0,0,0,.35.106.649.649,0,0,0,.6-.9l-1.218-2.876-.061-.145h2.654c.052,0,.1,0,.155,0h.012l.065,0h.026l.074-.006.052-.006.047-.006.016,0h0l.084-.013.058-.01h.006l.089-.018.088-.02.052-.013.062-.017.013,0,.062-.019.076-.025q.07-.023.138-.05l.068-.027.067-.029.066-.03.066-.032.058-.03.07-.038.062-.035,0,0,.059-.036.061-.039c.081-.052.159-.109.235-.167l.065-.052.05-.043.05-.044.061-.056c.02-.019.04-.038.06-.058l.072-.074.07-.077c.023-.026.046-.052.068-.079l.065-.081c.017-.022.034-.044.05-.067s.033-.045.049-.067l.047-.069.045-.07c.012-.019.025-.039.036-.06s.019-.031.027-.047l.026-.047q.023-.042.045-.083l.006-.012.029-.059.028-.061c.007-.014.014-.029.019-.044l.017-.039c.01-.024.02-.049.03-.072.021-.053.04-.106.058-.16s.038-.12.055-.182l0-.014c0-.017.009-.034.013-.05s.014-.056.019-.083.012-.056.017-.085.008-.043.012-.065.006-.036.009-.054.006-.043.009-.065.006-.05.009-.075a3.2,3.2,0,0,0,.019-.354V140.8A3.233,3.233,0,0,0,707.322,137.57Zm-6.77,6.139a.75.75,0,1,1-.22.53A.749.749,0,0,1,700.552,143.709Zm5.224,5.943a2.01,2.01,0,0,1-.411.777,1.91,1.91,0,0,1-.712.506,2.6,2.6,0,0,1-1.013.182h-.363q-.27,0-.552-.01c-.209-.006-.417-.023-.624-.05a5.587,5.587,0,0,1-.616-.117,3.259,3.259,0,0,1-.545-.189.1.1,0,0,0-.088,0,1.533,1.533,0,0,1-.276.1,4.568,4.568,0,0,1-.456.1q-.256.044-.545.074t-.583.052c-.2.014-.387.025-.574.031s-.356.01-.509.01q-.425,0-.92-.036a7.48,7.48,0,0,1-.987-.139,5.886,5.886,0,0,1-.953-.284,3.082,3.082,0,0,1-.82-.473,2.4,2.4,0,0,1-.588-.707,2.267,2.267,0,0,1-.258-.989,2.389,2.389,0,0,1,.062-.547,3.484,3.484,0,0,1,.165-.519,5.371,5.371,0,0,1,.234-.5l.06-.112a.357.357,0,0,1,.544-.1l.548.459a.358.358,0,0,1,.076.46l0,0c-.063.107-.125.219-.184.338a2.668,2.668,0,0,0-.149.356,1.022,1.022,0,0,0-.059.313.463.463,0,0,0,.127.318,1.1,1.1,0,0,0,.354.248,2.863,2.863,0,0,0,.535.184,6.027,6.027,0,0,0,.669.124q.361.048.76.072t.81.024l.4,0,.406-.007.337-.01h0a.1.1,0,0,0,.077-.157,2.332,2.332,0,0,1-.192-.325,1.627,1.627,0,0,1-.158-.641,2.138,2.138,0,0,1,.06-.571,2.664,2.664,0,0,1,.2-.561,2.717,2.717,0,0,1,.325-.51,2.362,2.362,0,0,1,.425-.411,1.844,1.844,0,0,1,.5-.268,1.553,1.553,0,0,1,.562-.083,1.754,1.754,0,0,1,.774.215,2.124,2.124,0,0,1,.619.507,2.429,2.429,0,0,1,.411.7,2.255,2.255,0,0,1,.151.81,1.975,1.975,0,0,1-.11.647,3.465,3.465,0,0,1-.2.473.1.1,0,0,0,.08.147l.294.026q.217.017.409.017h.33a1.54,1.54,0,0,0,.4-.043.474.474,0,0,0,.244-.148.59.59,0,0,0,.12-.285,2.463,2.463,0,0,0,.026-.451c0-.026,0-.119-.014-.28s-.021-.363-.035-.607-.032-.516-.053-.817-.041-.606-.062-.915-.04-.61-.06-.9-.037-.552-.055-.775-.033-.4-.045-.53v0a.21.21,0,0,1,.159-.222l1.1-.27a.21.21,0,0,1,.26.187c0,.043.007.092.012.146q.026.315.065.949t.089,1.62q.05.987.1,2.4A3.2,3.2,0,0,1,705.775,149.653Zm2.55-1.2q0,.383-.01.793t-.021.832q-.007.193-.016.382a.539.539,0,0,1-.455.506l-.389.06a.538.538,0,0,1-.62-.563c0-.049.006-.1.008-.147q.024-.421.041-.832t.021-.8q0-.388-.01-.713-.028-.678-.055-1.192t-.052-.91q-.026-.4-.052-.7c-.018-.2-.036-.382-.055-.547s-.04-.321-.062-.466a.01.01,0,0,0,0,0,.534.534,0,0,1,.359-.589l.438-.145a.539.539,0,0,1,.7.441q.043.323.074.649.065.651.1,1.245t.045,1.106q.012.511.012.874Q708.327,148.073,708.325,148.455Zm-6.751-.047a.6.6,0,0,1-.062.246,1.445,1.445,0,0,1-.16.268,1.864,1.864,0,0,1-.222.248l0,0a.416.416,0,0,1-.527.038l-.023-.016a1.767,1.767,0,0,1-.268-.244,1.573,1.573,0,0,1-.191-.258.434.434,0,0,1-.074-.2.79.79,0,0,1,.086-.38.981.981,0,0,1,.213-.272,1.012,1.012,0,0,1,.268-.175l.074-.031a.43.43,0,0,1,.369.028l.032.019a1.147,1.147,0,0,1,.232.184,1.107,1.107,0,0,1,.182.249A.613.613,0,0,1,701.574,148.408Z" transform="translate(-257.187)" fill="#d1d3d3"/>
  </g>
</svg>
