<svg xmlns="http://www.w3.org/2000/svg" width="16" height="20" viewBox="0 0 16 20">
  <path id="search-icon" d="M19.075,19.045l-5.444-7.481A6.111,6.111,0,0,0,15.162,3.9,6.354,6.354,0,0,0,7.835.865a6.2,6.2,0,0,0-4.53,6.417,6.241,6.241,0,0,0,5.474,5.664,6.539,6.539,0,0,0,1.85-.039l-.981-1.389H9.7A4.792,4.792,0,0,1,4.819,7.183,4.755,4.755,0,0,1,8.888,2.1a4.822,4.822,0,0,1,5.445,3.632,4.727,4.727,0,0,1-3.316,5.582l.908,1.292,5.569,7.6a1,1,0,0,0,1.379.223.958.958,0,0,0,.227-1.353Z" transform="translate(-3.287 -0.619)"/>
</svg>
