<?xml version="1.0" encoding="utf-8"?>
<svg xmlns="http://www.w3.org/2000/svg" xmlns:xlink="http://www.w3.org/1999/xlink" style="margin: auto; background: none; display: block; shape-rendering: auto;" width="200px" height="200px" viewBox="0 0 100 100" preserveAspectRatio="xMidYMid">
<g transform="rotate(0 50 50)">
  <rect x="15" y="36.5" rx="35" ry="0.5" width="70" height="1" fill="#2dc8e6">
    <animate attributeName="opacity" values="1;0" keyTimes="0;1" dur="1s" begin="-0.9722222222222222s" repeatCount="indefinite"></animate>
  </rect>
</g><g transform="rotate(10 50 50)">
  <rect x="15" y="36.5" rx="35" ry="0.5" width="70" height="1" fill="#2dc8e6">
    <animate attributeName="opacity" values="1;0" keyTimes="0;1" dur="1s" begin="-0.9444444444444444s" repeatCount="indefinite"></animate>
  </rect>
</g><g transform="rotate(20 50 50)">
  <rect x="15" y="36.5" rx="35" ry="0.5" width="70" height="1" fill="#2dc8e6">
    <animate attributeName="opacity" values="1;0" keyTimes="0;1" dur="1s" begin="-0.9166666666666666s" repeatCount="indefinite"></animate>
  </rect>
</g><g transform="rotate(30 50 50)">
  <rect x="15" y="36.5" rx="35" ry="0.5" width="70" height="1" fill="#2dc8e6">
    <animate attributeName="opacity" values="1;0" keyTimes="0;1" dur="1s" begin="-0.8888888888888888s" repeatCount="indefinite"></animate>
  </rect>
</g><g transform="rotate(40 50 50)">
  <rect x="15" y="36.5" rx="35" ry="0.5" width="70" height="1" fill="#2dc8e6">
    <animate attributeName="opacity" values="1;0" keyTimes="0;1" dur="1s" begin="-0.8611111111111112s" repeatCount="indefinite"></animate>
  </rect>
</g><g transform="rotate(50 50 50)">
  <rect x="15" y="36.5" rx="35" ry="0.5" width="70" height="1" fill="#2dc8e6">
    <animate attributeName="opacity" values="1;0" keyTimes="0;1" dur="1s" begin="-0.8333333333333334s" repeatCount="indefinite"></animate>
  </rect>
</g><g transform="rotate(60 50 50)">
  <rect x="15" y="36.5" rx="35" ry="0.5" width="70" height="1" fill="#2dc8e6">
    <animate attributeName="opacity" values="1;0" keyTimes="0;1" dur="1s" begin="-0.8055555555555556s" repeatCount="indefinite"></animate>
  </rect>
</g><g transform="rotate(70 50 50)">
  <rect x="15" y="36.5" rx="35" ry="0.5" width="70" height="1" fill="#2dc8e6">
    <animate attributeName="opacity" values="1;0" keyTimes="0;1" dur="1s" begin="-0.7777777777777778s" repeatCount="indefinite"></animate>
  </rect>
</g><g transform="rotate(80 50 50)">
  <rect x="15" y="36.5" rx="35" ry="0.5" width="70" height="1" fill="#2dc8e6">
    <animate attributeName="opacity" values="1;0" keyTimes="0;1" dur="1s" begin="-0.75s" repeatCount="indefinite"></animate>
  </rect>
</g><g transform="rotate(90 50 50)">
  <rect x="15" y="36.5" rx="35" ry="0.5" width="70" height="1" fill="#2dc8e6">
    <animate attributeName="opacity" values="1;0" keyTimes="0;1" dur="1s" begin="-0.7222222222222222s" repeatCount="indefinite"></animate>
  </rect>
</g><g transform="rotate(100 50 50)">
  <rect x="15" y="36.5" rx="35" ry="0.5" width="70" height="1" fill="#2dc8e6">
    <animate attributeName="opacity" values="1;0" keyTimes="0;1" dur="1s" begin="-0.6944444444444444s" repeatCount="indefinite"></animate>
  </rect>
</g><g transform="rotate(110 50 50)">
  <rect x="15" y="36.5" rx="35" ry="0.5" width="70" height="1" fill="#2dc8e6">
    <animate attributeName="opacity" values="1;0" keyTimes="0;1" dur="1s" begin="-0.6666666666666666s" repeatCount="indefinite"></animate>
  </rect>
</g><g transform="rotate(120 50 50)">
  <rect x="15" y="36.5" rx="35" ry="0.5" width="70" height="1" fill="#2dc8e6">
    <animate attributeName="opacity" values="1;0" keyTimes="0;1" dur="1s" begin="-0.6388888888888888s" repeatCount="indefinite"></animate>
  </rect>
</g><g transform="rotate(130 50 50)">
  <rect x="15" y="36.5" rx="35" ry="0.5" width="70" height="1" fill="#2dc8e6">
    <animate attributeName="opacity" values="1;0" keyTimes="0;1" dur="1s" begin="-0.6111111111111112s" repeatCount="indefinite"></animate>
  </rect>
</g><g transform="rotate(140 50 50)">
  <rect x="15" y="36.5" rx="35" ry="0.5" width="70" height="1" fill="#2dc8e6">
    <animate attributeName="opacity" values="1;0" keyTimes="0;1" dur="1s" begin="-0.5833333333333334s" repeatCount="indefinite"></animate>
  </rect>
</g><g transform="rotate(150 50 50)">
  <rect x="15" y="36.5" rx="35" ry="0.5" width="70" height="1" fill="#2dc8e6">
    <animate attributeName="opacity" values="1;0" keyTimes="0;1" dur="1s" begin="-0.5555555555555556s" repeatCount="indefinite"></animate>
  </rect>
</g><g transform="rotate(160 50 50)">
  <rect x="15" y="36.5" rx="35" ry="0.5" width="70" height="1" fill="#2dc8e6">
    <animate attributeName="opacity" values="1;0" keyTimes="0;1" dur="1s" begin="-0.5277777777777778s" repeatCount="indefinite"></animate>
  </rect>
</g><g transform="rotate(170 50 50)">
  <rect x="15" y="36.5" rx="35" ry="0.5" width="70" height="1" fill="#2dc8e6">
    <animate attributeName="opacity" values="1;0" keyTimes="0;1" dur="1s" begin="-0.5s" repeatCount="indefinite"></animate>
  </rect>
</g><g transform="rotate(180 50 50)">
  <rect x="15" y="36.5" rx="35" ry="0.5" width="70" height="1" fill="#2dc8e6">
    <animate attributeName="opacity" values="1;0" keyTimes="0;1" dur="1s" begin="-0.4722222222222222s" repeatCount="indefinite"></animate>
  </rect>
</g><g transform="rotate(190 50 50)">
  <rect x="15" y="36.5" rx="35" ry="0.5" width="70" height="1" fill="#2dc8e6">
    <animate attributeName="opacity" values="1;0" keyTimes="0;1" dur="1s" begin="-0.4444444444444444s" repeatCount="indefinite"></animate>
  </rect>
</g><g transform="rotate(200 50 50)">
  <rect x="15" y="36.5" rx="35" ry="0.5" width="70" height="1" fill="#2dc8e6">
    <animate attributeName="opacity" values="1;0" keyTimes="0;1" dur="1s" begin="-0.4166666666666667s" repeatCount="indefinite"></animate>
  </rect>
</g><g transform="rotate(210 50 50)">
  <rect x="15" y="36.5" rx="35" ry="0.5" width="70" height="1" fill="#2dc8e6">
    <animate attributeName="opacity" values="1;0" keyTimes="0;1" dur="1s" begin="-0.3888888888888889s" repeatCount="indefinite"></animate>
  </rect>
</g><g transform="rotate(220 50 50)">
  <rect x="15" y="36.5" rx="35" ry="0.5" width="70" height="1" fill="#2dc8e6">
    <animate attributeName="opacity" values="1;0" keyTimes="0;1" dur="1s" begin="-0.3611111111111111s" repeatCount="indefinite"></animate>
  </rect>
</g><g transform="rotate(230 50 50)">
  <rect x="15" y="36.5" rx="35" ry="0.5" width="70" height="1" fill="#2dc8e6">
    <animate attributeName="opacity" values="1;0" keyTimes="0;1" dur="1s" begin="-0.3333333333333333s" repeatCount="indefinite"></animate>
  </rect>
</g><g transform="rotate(240 50 50)">
  <rect x="15" y="36.5" rx="35" ry="0.5" width="70" height="1" fill="#2dc8e6">
    <animate attributeName="opacity" values="1;0" keyTimes="0;1" dur="1s" begin="-0.3055555555555556s" repeatCount="indefinite"></animate>
  </rect>
</g><g transform="rotate(250 50 50)">
  <rect x="15" y="36.5" rx="35" ry="0.5" width="70" height="1" fill="#2dc8e6">
    <animate attributeName="opacity" values="1;0" keyTimes="0;1" dur="1s" begin="-0.2777777777777778s" repeatCount="indefinite"></animate>
  </rect>
</g><g transform="rotate(260 50 50)">
  <rect x="15" y="36.5" rx="35" ry="0.5" width="70" height="1" fill="#2dc8e6">
    <animate attributeName="opacity" values="1;0" keyTimes="0;1" dur="1s" begin="-0.25s" repeatCount="indefinite"></animate>
  </rect>
</g><g transform="rotate(270 50 50)">
  <rect x="15" y="36.5" rx="35" ry="0.5" width="70" height="1" fill="#2dc8e6">
    <animate attributeName="opacity" values="1;0" keyTimes="0;1" dur="1s" begin="-0.2222222222222222s" repeatCount="indefinite"></animate>
  </rect>
</g><g transform="rotate(280 50 50)">
  <rect x="15" y="36.5" rx="35" ry="0.5" width="70" height="1" fill="#2dc8e6">
    <animate attributeName="opacity" values="1;0" keyTimes="0;1" dur="1s" begin="-0.19444444444444445s" repeatCount="indefinite"></animate>
  </rect>
</g><g transform="rotate(290 50 50)">
  <rect x="15" y="36.5" rx="35" ry="0.5" width="70" height="1" fill="#2dc8e6">
    <animate attributeName="opacity" values="1;0" keyTimes="0;1" dur="1s" begin="-0.16666666666666666s" repeatCount="indefinite"></animate>
  </rect>
</g><g transform="rotate(300 50 50)">
  <rect x="15" y="36.5" rx="35" ry="0.5" width="70" height="1" fill="#2dc8e6">
    <animate attributeName="opacity" values="1;0" keyTimes="0;1" dur="1s" begin="-0.1388888888888889s" repeatCount="indefinite"></animate>
  </rect>
</g><g transform="rotate(310 50 50)">
  <rect x="15" y="36.5" rx="35" ry="0.5" width="70" height="1" fill="#2dc8e6">
    <animate attributeName="opacity" values="1;0" keyTimes="0;1" dur="1s" begin="-0.1111111111111111s" repeatCount="indefinite"></animate>
  </rect>
</g><g transform="rotate(320 50 50)">
  <rect x="15" y="36.5" rx="35" ry="0.5" width="70" height="1" fill="#2dc8e6">
    <animate attributeName="opacity" values="1;0" keyTimes="0;1" dur="1s" begin="-0.08333333333333333s" repeatCount="indefinite"></animate>
  </rect>
</g><g transform="rotate(330 50 50)">
  <rect x="15" y="36.5" rx="35" ry="0.5" width="70" height="1" fill="#2dc8e6">
    <animate attributeName="opacity" values="1;0" keyTimes="0;1" dur="1s" begin="-0.05555555555555555s" repeatCount="indefinite"></animate>
  </rect>
</g><g transform="rotate(340 50 50)">
  <rect x="15" y="36.5" rx="35" ry="0.5" width="70" height="1" fill="#2dc8e6">
    <animate attributeName="opacity" values="1;0" keyTimes="0;1" dur="1s" begin="-0.027777777777777776s" repeatCount="indefinite"></animate>
  </rect>
</g><g transform="rotate(350 50 50)">
  <rect x="15" y="36.5" rx="35" ry="0.5" width="70" height="1" fill="#2dc8e6">
    <animate attributeName="opacity" values="1;0" keyTimes="0;1" dur="1s" begin="0s" repeatCount="indefinite"></animate>
  </rect>
</g>
<!-- [ldio] generated by https://loading.io/ --></svg>