<svg xmlns="http://www.w3.org/2000/svg" xmlns:xlink="http://www.w3.org/1999/xlink" width="18" height="20" viewBox="0 0 23.659 27.036">
    <defs>
        <style>
            .a {
                fill: url(#a);
            }

            .b {
                fill: url(#b);
            }

            .c {
                fill: url(#c);
            }

            .d {
                fill: url(#d);
            }

            .e {
                fill: url(#e);
            }

            .f {
                fill: url(#f);
            }

            .g {
                fill: url(#g);
            }

            .h {
                fill: url(#h);
            }

            .i {
                fill: url(#i);
            }

            .j {
                fill: #e56354;
            }

            .k {
                fill: #fad362;
            }
        </style>
        <radialGradient id="a" cx="0.5" cy="0.5" r="0.5" gradientUnits="objectBoundingBox">
            <stop offset="0" stop-color="#fff" />
            <stop offset="0.29" stop-color="#fdfdfd" />
            <stop offset="0.42" stop-color="#f5f5f5" />
            <stop offset="0.53" stop-color="#e8e8e8" />
            <stop offset="0.62" stop-color="#d6d6d6" />
            <stop offset="0.7" stop-color="#bebebe" />
            <stop offset="0.77" stop-color="#a0a0a0" />
            <stop offset="0.84" stop-color="#7d7d7d" />
            <stop offset="0.9" stop-color="#545454" />
            <stop offset="0.96" stop-color="#272727" />
            <stop offset="1" />
        </radialGradient>
        <linearGradient id="b" y1="0.5" x2="1" y2="0.5" gradientUnits="objectBoundingBox">
            <stop offset="0" stop-color="#c4c4c4" />
            <stop offset="0.37" stop-color="#242424" />
            <stop offset="0.58" stop-color="#1d1d1d" />
            <stop offset="0.9" stop-color="#080808" />
            <stop offset="1" />
        </linearGradient>
        <linearGradient id="c" x1="0.003" y1="0.496" x2="1.006" y2="0.496"
            gradientUnits="objectBoundingBox">
            <stop offset="0" stop-color="#8a8a8a" />
            <stop offset="0.03" stop-color="#767676" />
            <stop offset="0.09" stop-color="#575757" />
            <stop offset="0.16" stop-color="#3b3b3b" />
            <stop offset="0.23" stop-color="#252525" />
            <stop offset="0.32" stop-color="#141414" />
            <stop offset="0.43" stop-color="#090909" />
            <stop offset="0.58" stop-color="#020202" />
            <stop offset="1" />
        </linearGradient>
        <linearGradient id="d" x1="0" y1="0.493" x2="1" y2="0.493" xlink:href="#c" />
        <linearGradient id="e" x1="0" y1="0.495" x2="1" y2="0.495" xlink:href="#c" />
        <linearGradient id="f" x1="-0.01" y1="0.501" x2="0.988" y2="0.501" xlink:href="#c" />
        <linearGradient id="g" x1="0" y1="0.501" x2="1" y2="0.501" xlink:href="#c" />
        <linearGradient id="h" x1="0.002" y1="0.509" x2="1.013" y2="0.509" xlink:href="#c" />
        <linearGradient id="i" x1="0" y1="0.493" x2="1" y2="0.493" xlink:href="#c" />
    </defs>
    <circle class="a" cx="11.241" cy="11.241" r="11.241" transform="translate(0.487 3.868)" />
    <path class="b"
        d="M21.24,12.26A11.83,11.83,0,1,0,33.07,24.09,11.83,11.83,0,0,0,21.24,12.26Zm4.1,21.662v-1.46a.348.348,0,0,0-.348-.348h-.113a.348.348,0,0,0-.348.348v1.762l-.471.138V27.287a.354.354,0,0,0-.348-.348H23.6a.348.348,0,0,0-.348.348v7.26l-.456.082V28.839a.343.343,0,0,0-.348-.348h-.113a.343.343,0,0,0-.348.348v5.871h-.461V27.63a.343.343,0,0,0-.348-.348h-.113a.348.348,0,0,0-.348.348v7.1a2.045,2.045,0,0,1-.466-.036V30.868a.343.343,0,0,0-.348-.348h-.113a.343.343,0,0,0-.348.348v3.714a2.046,2.046,0,0,1-.456-.087V28.522a.343.343,0,0,0-.348-.348h-.113a.348.348,0,0,0-.348.348v5.769l-.43-.133V31.288a.343.343,0,0,0-.343-.359h-.113a.348.348,0,0,0-.348.348V33.84a10.652,10.652,0,1,1,8.4.092Z"
        transform="translate(-9.41 -8.884)" />
    <g transform="translate(3.381 13.09)">
        <path class="c"
            d="M17.5,33.059a.717.717,0,0,0-.2-.118,2.087,2.087,0,0,1-.328-.1,3.254,3.254,0,0,1-.471-.164.748.748,0,0,1-.313-.236.615.615,0,0,1-.133-.41v-.113a.666.666,0,0,1,.174-.384.881.881,0,0,1,.364-.236,1.276,1.276,0,0,1,.466-.082,1.537,1.537,0,0,1,.4.056,1.025,1.025,0,0,1,.343.174.251.251,0,0,1,.108.2.21.21,0,0,1-.067.154.2.2,0,0,1-.154.067.21.21,0,0,1-.143-.046,1.327,1.327,0,0,0-.256-.108,1.26,1.26,0,0,0-.3-.041.615.615,0,0,0-.3.072.307.307,0,0,0-.154.215.143.143,0,0,0,0,.051.241.241,0,0,0,.082.19.543.543,0,0,0,.2.118,3.417,3.417,0,0,0,.333.1,4.411,4.411,0,0,1,.482.159.876.876,0,0,1,.323.241.615.615,0,0,1,.133.41.748.748,0,0,1-.154.512.871.871,0,0,1-.395.287,1.693,1.693,0,0,1-1.025.015,1.122,1.122,0,0,1-.4-.2.266.266,0,0,1-.1-.215.292.292,0,0,1,.046-.164.266.266,0,0,1,.184-.092.251.251,0,0,1,.159.067,1.189,1.189,0,0,0,.313.143,1.44,1.44,0,0,0,.374.056.625.625,0,0,0,.338-.087.374.374,0,0,0,.164-.282.3.3,0,0,0-.092-.215Z"
            transform="translate(-16.01 -31.22)" />
        <path class="d"
            d="M22.753,31.746a.251.251,0,0,1,.077-.195.266.266,0,0,1,.184-.072.231.231,0,0,1,.169.072.246.246,0,0,1,.077.195v1.4a1.025,1.025,0,0,1-.594.958,1.378,1.378,0,0,1-1.137,0,1.025,1.025,0,0,1-.435-.369,1.061,1.061,0,0,1-.164-.589v-1.4a.236.236,0,0,1,.082-.195.256.256,0,0,1,.179-.072.251.251,0,0,1,.174.072.261.261,0,0,1,.072.195v1.4a.512.512,0,0,0,.1.318.64.64,0,0,0,.251.2.774.774,0,0,0,.323.067.738.738,0,0,0,.318-.067.512.512,0,0,0,.236-.195.569.569,0,0,0,.092-.323Z"
            transform="translate(-18.409 -31.347)" />
        <path class="e"
            d="M26.581,34.062a.236.236,0,0,1-.061-.169V31.7a.221.221,0,0,1,.236-.241h1.081a.835.835,0,0,1,.42.1.651.651,0,0,1,.272.266.753.753,0,0,1,.087.369.61.61,0,0,1-.21.512.687.687,0,0,1,.333.256.676.676,0,0,1,.108.384.84.84,0,0,1-.1.41.712.712,0,0,1-.3.292,1.025,1.025,0,0,1-.482.108h-1.2A.236.236,0,0,1,26.581,34.062Zm1.45-2.049a.256.256,0,0,0-.195-.082h-.815V32.5h.815a.256.256,0,0,0,.2-.077.333.333,0,0,0,.072-.231A.272.272,0,0,0,28.031,32.013Zm-.067,1.65a.307.307,0,0,0,.246-.1.354.354,0,0,0,.092-.241.343.343,0,0,0-.092-.241.307.307,0,0,0-.246-.1h-.943v.687Z"
            transform="translate(-21.135 -31.337)" />
        <path class="f"
            d="M32.407,34.067a.261.261,0,0,1-.184.072.251.251,0,0,1-.179-.067A.236.236,0,0,1,32,33.888V31.7a.225.225,0,0,1,.067-.169.236.236,0,0,1,.164-.067h1.025a.871.871,0,0,1,.471.123.845.845,0,0,1,.3.328.933.933,0,0,1,.1.425.845.845,0,0,1-.133.456.738.738,0,0,1-.379.307l.512.625a.318.318,0,0,1,.056.169.231.231,0,0,1-.077.174.256.256,0,0,1-.179.072.292.292,0,0,1-.231-.123l-.584-.835h-.6v.7A.236.236,0,0,1,32.407,34.067Zm.82-1.306a.338.338,0,0,0,.287-.128.41.41,0,0,0,.1-.287.43.43,0,0,0-.082-.3.384.384,0,0,0-.292-.118h-.733v.835Z"
            transform="translate(-23.804 -31.337)" />
        <path class="g"
            d="M37.09,31.681a.215.215,0,0,1,.077-.174.266.266,0,0,1,.184-.067.256.256,0,0,1,.174.061.225.225,0,0,1,.077.179v2.208a.225.225,0,0,1-.077.179.287.287,0,0,1-.184.061.266.266,0,0,1-.174-.061.225.225,0,0,1-.077-.179Z"
            transform="translate(-26.29 -31.327)" />
        <path class="h"
            d="M39.61,33.887a1.168,1.168,0,0,1-.456-.512,1.614,1.614,0,0,1-.154-.7,1.568,1.568,0,0,1,.159-.7,1.209,1.209,0,0,1,.461-.512,1.409,1.409,0,0,1,.738-.184,1.255,1.255,0,0,1,.466.082,1.327,1.327,0,0,1,.415.261.338.338,0,0,1,.061.087.251.251,0,0,1,0,.1.266.266,0,0,1-.072.184.272.272,0,0,1-.174.067.251.251,0,0,1-.184-.077.594.594,0,0,0-.236-.169,1.025,1.025,0,0,0-.789.077.784.784,0,0,0-.3.323.984.984,0,0,0-.1.446,1.025,1.025,0,0,0,.1.456.763.763,0,0,0,.3.338.917.917,0,0,0,.487.123.886.886,0,0,0,.6-.246.277.277,0,0,1,.154-.051.251.251,0,0,1,.118.031.231.231,0,0,1,.087.067.266.266,0,0,1,.051.159.277.277,0,0,1-.1.2.922.922,0,0,1-.41.236,1.7,1.7,0,0,1-.512.067,1.44,1.44,0,0,1-.712-.159Z"
            transform="translate(-27.221 -31.249)" />
        <path class="i"
            d="M44.346,34.125h-.092a.359.359,0,0,1-.113-.1.276.276,0,0,1-.01-.272l1.107-2.162a.266.266,0,0,1,.108-.118.22.22,0,0,1,.138-.041.215.215,0,0,1,.133.041.256.256,0,0,1,.1.118l1.086,2.183a.272.272,0,0,1,.031.123.236.236,0,0,1-.082.184.292.292,0,0,1-.19.072.2.2,0,0,1-.118-.036.215.215,0,0,1-.087-.1l-.174-.338H44.761l-.164.338A.251.251,0,0,1,44.346,34.125Zm1.132-1.942L45,33.136h.912Z"
            transform="translate(-29.708 -31.322)" />
    </g>
    <path class="j"
        d="M44.826,5.67H38.309a1.4,1.4,0,0,0-1.4,1.4v4.965a1.4,1.4,0,0,0,1.4,1.4H38.7l-.512,1.337a.159.159,0,0,0,.036.174.164.164,0,0,0,.174.026l3.228-1.537h3.223a1.4,1.4,0,0,0,1.4-1.4V7.069a1.4,1.4,0,0,0-1.419-1.4Z"
        transform="translate(-22.821 -5.67)" />
    <path class="k"
        d="M43.26,7.6l.8,1.624a.179.179,0,0,0,.138.1l1.788.261a.184.184,0,0,1,.1.313l-1.3,1.26a.2.2,0,0,0-.051.164l.3,1.783a.179.179,0,0,1-.261.195l-1.6-.845a.2.2,0,0,0-.169,0l-1.6.845a.184.184,0,0,1-.266-.195l.307-1.783a.184.184,0,0,0-.056-.164l-1.3-1.26a.184.184,0,0,1,.1-.313l1.793-.261a.179.179,0,0,0,.138-.1l.8-1.624a.184.184,0,0,1,.328,0Z"
        transform="translate(-24.349 -6.565)" />
</svg>