<svg id="taylor_icon_singer" data-name="taylor icon singer" xmlns="http://www.w3.org/2000/svg" width="18" height="20" viewBox="0 0 20.565 31.206">
  <g id="Group_148" data-name="Group 148">
    <path id="Path_360" data-name="Path 360" d="M44.12,49.39a6.575,6.575,0,0,1,1.1.934,11.8,11.8,0,0,1,1.275,3.251,1.577,1.577,0,0,0,.628,1l-.229.681a4.647,4.647,0,0,1,.311.973,1.846,1.846,0,0,1-.034.219s.6.1,1.187.165a3.144,3.144,0,0,0,.389-.209s-.161-1.1-.307-1.854a8.024,8.024,0,0,0-.3-1.153l-.195-.131s-1.367-1.985-1.878-2.56A8.273,8.273,0,0,0,44.4,49.473l-.248-.083Z" transform="translate(-28.182 -25.58)" fill="#fff000" fill-rule="evenodd"/>
    <path id="Path_361" data-name="Path 361" d="M23.752,55.712a16.145,16.145,0,0,1-2.1,1.645H20.628l-.063-.229H20.37s.735-.715.905-.866,5.951-3.684,7.362-3.927a10.053,10.053,0,0,1,2.316-.2c.117.165.238.35.365.54l-.088-.029C28.107,51.726,26.117,53.444,23.752,55.712Z" transform="translate(-15.989 -26.987)" fill="#1d6b75" fill-rule="evenodd"/>
    <path id="Path_362" data-name="Path 362" d="M23.12,58.089l.117.131a3.054,3.054,0,0,0,.365-.088l.287.088c.409-.579,1.192-1.664,1.839-2.5.92-1.182,3.917-2.72,5.839-1.946A5.051,5.051,0,0,1,34.2,55.918a5.3,5.3,0,0,1,.92.754c.185.263-.487,1.815-.487,1.815a6.213,6.213,0,0,0,.793-.127,5.143,5.143,0,0,0-.973-4.126,4.638,4.638,0,0,0-6.073-.73A30.493,30.493,0,0,0,23.12,58.089Z" transform="translate(-17.401 -27.281)" fill="#fdcd9b" fill-rule="evenodd"/>
    <path id="Path_363" data-name="Path 363" d="M44.16,49.17a7.139,7.139,0,0,1,2.511,1.893,7.827,7.827,0,0,1,1.46,2.049l-.409.146a15.328,15.328,0,0,0-2.088-2.92,4.19,4.19,0,0,0-1.46-1.071Z" transform="translate(-28.203 -25.467)" fill="#4d0b49" fill-rule="evenodd"/>
    <path id="Path_364" data-name="Path 364" d="M37.32,49.945a14.354,14.354,0,0,0,1.742-.35,6.409,6.409,0,0,0,2.078-1.032l-.487-.633s-2.72.487-2.949.487S37.32,49.945,37.32,49.945Z" transform="translate(-24.691 -24.831)" fill="#d65b32" fill-rule="evenodd"/>
    <path id="Path_365" data-name="Path 365" d="M21.857,47.54a33.6,33.6,0,0,1-2.491,3.2,9.8,9.8,0,0,0-1.406,2.691c-.17.384-.3.735-.4,1.022a2.921,2.921,0,0,0,.248.243c.127-.589.282-1.26.331-1.377a14.632,14.632,0,0,1,1.64-2.044c.331-.268,1.737.224,2.19.224a18.35,18.35,0,0,0,2.569-.774Z" transform="translate(-14.547 -24.63)" fill="#684388" fill-rule="evenodd"/>
    <path id="Path_366" data-name="Path 366" d="M42.067,33.53a5.543,5.543,0,0,0,.637,3.854c.735,1.241.647,1.226.1,1.674-.054-.209-.131-.487-.219-.793a5.6,5.6,0,0,0-.2-.642v1.333a2.435,2.435,0,0,0,.029.448,5.839,5.839,0,0,0-.8,1,4.156,4.156,0,0,1-3.893,1.81l-.1-.151a3.212,3.212,0,0,0,2.53-.667c1.075-.973,1.129-1.314,1.129-1.314a3.713,3.713,0,0,1-2.209,1.275,3.985,3.985,0,0,0-1.6.326,7.785,7.785,0,0,1-.725-1.319c-.156-.487-.238-.822-.238-.822a18.8,18.8,0,0,1,2.973-1.226c.477,0,.774-.564.774-.564a17.673,17.673,0,0,1-.418-2.5,3.518,3.518,0,0,1,.19-1.635Zm-2.18,2.287a8.7,8.7,0,0,0-1.314,1.776c-.876,1.4-1.883,1.377-1.883,1.377L36.617,37.6s.141.268.866-.852a10.705,10.705,0,0,0,1.051-2.015Z" transform="translate(-24.275 -17.438)" fill="#684388" fill-rule="evenodd"/>
    <path id="Path_367" data-name="Path 367" d="M42.811,9.86c-.224-.039-1.036-2.321-1.684-3.051s-.827-.973-.827-.973l.209-.156s.73,1.153,1.328,1.946a4.224,4.224,0,0,1,.7,1.129,11.873,11.873,0,0,0-.521-1.625c-.219-.438-.238-.487-.238-.487h.637s1.08.438,1.946,3.893A16.629,16.629,0,0,0,45.774,14.8l-.156.355.589.9-.759.915C45.186,17.271,42.811,9.86,42.811,9.86Z" transform="translate(-26.221 -3.14)" fill="#a4d404" fill-rule="evenodd"/>
    <path id="Path_368" data-name="Path 368" d="M35.466,10.126a5.416,5.416,0,0,0-.706-1.241,7.311,7.311,0,0,1-.53-.672s0,.029.448-.127.258-.049,1,.073a1.017,1.017,0,0,0,1.056-.54s.569.973,1.032,1.771a10.736,10.736,0,0,1,.623,3.08S35.515,12.88,35.466,10.126Z" transform="translate(-23.105 -4.136)" fill="#fdcd9b" fill-rule="evenodd"/>
    <path id="Path_369" data-name="Path 369" d="M17.714,41.934a7.918,7.918,0,0,1,1.732,2.3,10.561,10.561,0,0,1,.1,3.494l-.321.058a7.513,7.513,0,0,0,.277-2.3c-.107-1.109-.331-1.275-.331-1.275a3.684,3.684,0,0,1-.511,2.433c-.754,1.46-.365,1.946-.365,1.946a4,4,0,0,1-1.392-2.107,4.91,4.91,0,0,1-.438-1.981l.2-.277a8.726,8.726,0,0,1-.55-.934,4.516,4.516,0,0,1-.287-.759,12.326,12.326,0,0,0,.156,3.372c.394,2.029,1.182,1.946,1.182,1.946v.073a2.292,2.292,0,0,1-1.08-.847c-.462-.657-.774-3.367-.842-4.345A4.837,4.837,0,0,0,14.6,40.8l.973-.19.161.745,1.08-.156Z" transform="translate(-13.027 -21.073)" fill="#fff000" fill-rule="evenodd"/>
    <path id="Path_370" data-name="Path 370" d="M24.6,44.041a22.428,22.428,0,0,1,.827,3.129c.088.949.92-.9.92-.9l-.793-2.384Z" transform="translate(-18.161 -22.756)" fill="#d65b32" fill-rule="evenodd"/>
    <path id="Path_371" data-name="Path 371" d="M27.7,51.067a5.353,5.353,0,0,1-1.061.136,2.244,2.244,0,0,1-.584-.049s.127-1.815.127-2.131a1.9,1.9,0,0,1,.331-.783,5.937,5.937,0,0,1,1.557,1.586A1.178,1.178,0,0,1,27.7,51.067Z" transform="translate(-18.91 -24.99)" fill="#f29156" fill-rule="evenodd"/>
    <path id="Path_372" data-name="Path 372" d="M27.179,52.581a4.692,4.692,0,0,1-.535.039,2.243,2.243,0,0,1-.584-.049s.058-.832.1-1.46L26.712,51s.073.214.195.516A10.073,10.073,0,0,1,27.179,52.581Z" transform="translate(-18.91 -26.407)" fill="#f4af72" fill-rule="evenodd"/>
    <path id="Path_373" data-name="Path 373" d="M33.616,40.643s-.355.127.092,2.073a5.465,5.465,0,0,1-.19,3.294s-1.358.409-2.375.74a5.056,5.056,0,0,1-1.684.292,5.2,5.2,0,0,0,.331-2.983,2.185,2.185,0,0,1,.808-2.243l2.37-1.416Z" transform="translate(-20.656 -20.965)" fill="#f29156" fill-rule="evenodd"/>
    <path id="Path_374" data-name="Path 374" d="M31.612,40.078a10.959,10.959,0,0,1-2.389,1.873c-1.431.818-.842,2.467-1.027,3.241a4.131,4.131,0,0,1-.389,1.1,5.009,5.009,0,0,0-.973-2.37,2.634,2.634,0,0,1-.686-2.234c.034-.672,5.251-2.433,5.251-2.433Z" transform="translate(-18.949 -20.379)" fill="#d65b32" fill-rule="evenodd"/>
    <path id="Path_375" data-name="Path 375" d="M33.292,49.1l-1.367.428a6.886,6.886,0,0,1-.774.2L31,49.5s.4-1.294.681-2.195a4.243,4.243,0,0,1,.832-1.494s.535.929.818,1.411a4.253,4.253,0,0,1,.389.842S33.506,48.662,33.292,49.1Z" transform="translate(-21.447 -23.742)" fill="#f4af72" fill-rule="evenodd"/>
    <path id="Path_376" data-name="Path 376" d="M34.9,51.21l-.769.238c.063-.263.185-.749.2-.837s.623-.127.886-.141A4.939,4.939,0,0,1,34.9,51.21Zm.345-1.29c.063.156.092.253.092.253a.367.367,0,0,1-.068.175,1.736,1.736,0,0,1-.487-.034,1.319,1.319,0,0,1-.068-.3S35.089,49.959,35.244,49.92Z" transform="translate(-23.053 -25.852)" fill="#fdcd9b" fill-rule="evenodd"/>
    <path id="Path_377" data-name="Path 377" d="M16.663,7.743a1.377,1.377,0,0,1-.487-.973c-.083-.676,1.134-.676,1.946-1.616s1.217-1.036,1.217-1.036L19.3,4.04a15.085,15.085,0,0,0-1.6.973c-.754.526-1.645,1.012-1.727,1.771a.92.92,0,0,0,.418,1.007Z" transform="translate(-13.718 -2.298)" fill="#73c89e" fill-rule="evenodd"/>
    <path id="Path_378" data-name="Path 378" d="M42.029,33.716a17.865,17.865,0,0,0-.35,2.579,3.978,3.978,0,0,0,1.255,2.8l-.063.414.224.058a7.056,7.056,0,0,1,.355,1.83,10.039,10.039,0,0,1,0,1.669l-.161.044a9.246,9.246,0,0,0,0-2.238c-.156-1.236-.871-.915-1.591-2s.423-.268-.049.54a1.728,1.728,0,0,0-.209,1.46s-.131,0-.676-.438a1.985,1.985,0,0,1-.672-.925,8.335,8.335,0,0,1-1-4.063C39.25,33.433,42.029,33.716,42.029,33.716Zm-2.808,1.8a11.358,11.358,0,0,0,1.114,1.946c.53.647.681.681.681.681l.36-.321a22.828,22.828,0,0,1-1.436-2.355,3.732,3.732,0,0,0-.321-.686Z" transform="translate(-25.595 -17.526)" fill="#73c89e" fill-rule="evenodd"/>
    <path id="Path_379" data-name="Path 379" d="M11.69,24.08a15.085,15.085,0,0,1-.122,3.178c-.258,1.46-.112,2.394,1.178,4.438a5.723,5.723,0,0,1,.925,3.927l.487.394A12.847,12.847,0,0,0,13.67,32.8a4.521,4.521,0,0,0-.6-1.226s.4.122,1.153,1.684,1.148,1.484,2.978,2a4.243,4.243,0,0,1,2.5,1.645l.1-.044A5.433,5.433,0,0,0,17.14,34.9a5.581,5.581,0,0,1-2.832-2.871,4.243,4.243,0,0,0,1.392,1.46,6.442,6.442,0,0,0,1.786.6s.438-.311.535-.4a15.658,15.658,0,0,0-1.732-1.815,11.431,11.431,0,0,1-2.039-1.46,12.775,12.775,0,0,1-1.708-3.966,21.5,21.5,0,0,1,.195-2.735Z" transform="translate(-11.416 -12.396)" fill="#e81356" fill-rule="evenodd"/>
    <path id="Path_380" data-name="Path 380" d="M45.053,12.88l.078.195c.613,1.543,1.012,3.693,1.742,5.353a8.035,8.035,0,0,0,.973,1.888l-.54.652a3.27,3.27,0,0,1,.487.852,9.615,9.615,0,0,1,.073,2.1s-1.051.521-1.182.579a2.345,2.345,0,0,1-.487.073s.248-.229.229-1.348-.054-1.372-.054-1.372a13.142,13.142,0,0,0-.321,1.46c0,.36,0,.487,0,.487s-.7-.049-.774-.044a41.167,41.167,0,0,1-.71-6.584,17.168,17.168,0,0,0-.136-2.657l.487.487s-.17-1.328-.238-1.5a1.484,1.484,0,0,0-.151-.277,1.3,1.3,0,0,1,.526-.341Z" transform="translate(-28.341 -6.836)" fill="#fff000" fill-rule="evenodd"/>
    <path id="Path_381" data-name="Path 381" d="M43.122,26.509a7.086,7.086,0,0,1-.365,1.659,2.9,2.9,0,0,0,.584,2.2l-.156.058a5.275,5.275,0,0,1-.788-1.946,3.207,3.207,0,0,1-.044-1.494,15.469,15.469,0,0,1-2.117-.9c-.4-.287-.847-3.178-.847-3.178s.248-2.068.886-2.375,1.26.905,1.9,1.46S43.147,23.628,43.122,26.509Z" transform="translate(-25.754 -10.743)" fill="#fff" fill-rule="evenodd"/>
    <path id="Path_382" data-name="Path 382" d="M44.967,29.844a1.255,1.255,0,0,0,.345-.044c.1-.044-.161-.818-.195-1.075s-.618-.355-.618-.355Z" transform="translate(-28.377 -14.789)" fill="#fff000" fill-rule="evenodd"/>
    <path id="Path_383" data-name="Path 383" d="M37.462,34.671s-.428.623-.72,1.085,0,.574.287,1.552a2.263,2.263,0,0,1,0,1.489l.127.063a3.445,3.445,0,0,0-.063-1.557,3.305,3.305,0,0,1,.487-2.112,4.866,4.866,0,0,0-.131,1.075,3.372,3.372,0,0,0,.365,1.26h.4s-1.075-1.2-.438-2.024a3.406,3.406,0,0,0,.681-1.747,7.037,7.037,0,0,0,1.071,2.433c.861,1.265-.258.487.414.311s.234.423-.156-.861,0-1.606.783-2.521a2.676,2.676,0,0,0,.7-1.859,4.555,4.555,0,0,1-.9.1c-.243-.034-.7-.136-.7-.136l-.058.3s-.433-.345-.594-.443-1.557.6-1.557.6Z" transform="translate(-24.332 -16.175)" fill="#506eb6" fill-rule="evenodd"/>
    <path id="Path_384" data-name="Path 384" d="M14.264,11.53h-.929A8.214,8.214,0,0,0,11.9,12.99c-.628.74-.526,2.686-.526,2.686l.151.1-.112.175a17.766,17.766,0,0,1,.263,3.3,5.654,5.654,0,0,0,.594,2.574h.1a7.557,7.557,0,0,1-.487-3.645,9.625,9.625,0,0,0,.127-2.623,7.367,7.367,0,0,1,.282,2,11.333,11.333,0,0,1-.131,1.718l.136.487-.117.2a10.38,10.38,0,0,0,.73,2.988c.584,1.236,3.2,2.71,3.2,2.71l.049-.229a4.4,4.4,0,0,1-2.18-2.141,11.468,11.468,0,0,1-1.168-4.618,19.6,19.6,0,0,0,.613,2.394,6.973,6.973,0,0,1,.409,1.387s.715-1.382.822-1.742S14.264,11.53,14.264,11.53Z" transform="translate(-11.367 -6.143)" fill="#a4d404" fill-rule="evenodd"/>
    <path id="Path_385" data-name="Path 385" d="M14.743,11.53h-.925A15.328,15.328,0,0,0,12.6,12.966a2.394,2.394,0,0,0-.3.74l.394.589s.17-.74.37-1.348a1.752,1.752,0,0,1,.35-.735,5.98,5.98,0,0,0-.433,2.467,5.1,5.1,0,0,0,.238,2.258l.238.068-.185.326a1.577,1.577,0,0,1,.487.881,1.917,1.917,0,0,1-.029.973,4.827,4.827,0,0,0,.487-2.516,5.324,5.324,0,0,1,.657-2.633C14.806,12.625,14.743,11.53,14.743,11.53Z" transform="translate(-11.846 -6.143)" fill="#1d6b75" fill-rule="evenodd"/>
    <path id="Path_386" data-name="Path 386" d="M29.577,8.935c-.117-.1-1.723-1.523-2.53-2.36S26,5.494,26,5.494s.418-.277.779-.487A2.034,2.034,0,0,0,27.2,4.75l.8.6-.375-.535.136-.078S30.1,7.2,32,9.334A9.594,9.594,0,0,1,34.2,12.565a20.1,20.1,0,0,0-1.012-2.978A16.447,16.447,0,0,0,31.961,7.64l.647-.209a2.89,2.89,0,0,1,.9.156l.156-.389h.209a16.939,16.939,0,0,1,1.489,3.294,9.041,9.041,0,0,1,.54,3.2l-.195.667.487.38a15.367,15.367,0,0,1,.122,3.406,10.759,10.759,0,0,1-.321,1.46l-.487.029a3.5,3.5,0,0,0,.35-3.236c-.623-2.107-.842-2.229-.842-2.229s.428,1.971.579,2.735a3.285,3.285,0,0,1,0,1.4l-.175-.024s.487-.973-.3-3.075a10.55,10.55,0,0,0-2.3-3.489Z" transform="translate(-18.88 -2.657)" fill="#506eb6" fill-rule="evenodd"/>
    <path id="Path_387" data-name="Path 387" d="M29.471,19.4l.443-.234a5.309,5.309,0,0,1,1.46,1.723c.7,1.226.618,1.62,1.285,2.117s1.032.3,1.032.3l.058.083a1.727,1.727,0,0,1-1.095-.234,3.645,3.645,0,0,1-.856-.774l.2.925-.078.127.4.443a2.715,2.715,0,0,1,.243.73,6.121,6.121,0,0,1-.19,1.873l-.53-.4s.813-1.922-.287-2.842S30.5,21.935,30.5,21.935a4.959,4.959,0,0,0,.516,1.893,2.19,2.19,0,0,1-.073,2.058,2.292,2.292,0,0,1-.788-.146c-.287-.136-3.976-3.586-5.591-4.38L20.95,19.545s.511-.633,2.7-.715a36.769,36.769,0,0,1,5.82.569Z" transform="translate(-16.287 -9.891)" fill="#97d1e3" fill-rule="evenodd"/>
    <path id="Path_388" data-name="Path 388" d="M23.411,10A7.045,7.045,0,0,1,20.19,7l.487-.594a1.874,1.874,0,0,0,.394.078,1.246,1.246,0,0,1,.3.088l-.1-.219L21.8,6s1.859,1.572,2.74,2.375a8,8,0,0,0,1.319,1.051s-1.431-1.46-2.078-2.039a10.57,10.57,0,0,0-.929-.783l.078-.209s1.217,1.2,1.971,1.82,1.294,1.027,1.294,1.027,2.72,2.3,3.47,2.968a3.406,3.406,0,0,1,.973,1.328l-.131.044s-.384-.949-2.574-1.669A37.878,37.878,0,0,1,23.411,10Z" transform="translate(-15.897 -3.304)" fill="#a4d404" fill-rule="evenodd"/>
    <path id="Path_389" data-name="Path 389" d="M22.138,11.772a5.752,5.752,0,0,1-2.764-1.338A6.939,6.939,0,0,1,18.118,8.95a5.878,5.878,0,0,0-.487.487,1.192,1.192,0,0,0-.18.71l-.345-.229a4.91,4.91,0,0,0-.462.706c-.136.282-.243,2.384.3,2.74s4.326.384,4.326.384Z" transform="translate(-14.02 -4.819)" fill="#ad429b" fill-rule="evenodd"/>
    <path id="Path_390" data-name="Path 390" d="M20.16,13.11a13.617,13.617,0,0,0,3.689.783h.058l.569.273.487.219.487-.263a7.26,7.26,0,0,1,2.681,1.144,8.083,8.083,0,0,1,1.2.8l-.156.706-.238-.156a3.523,3.523,0,0,0-.608-.311s.521.487.788.725L29,17.519l-1-.487a3.582,3.582,0,0,0-1.577.1c-1.066.243-3.362-.72-3.362-.72l-2.015-.827L20.72,15s.487-.039,1.051-.112a11.338,11.338,0,0,1,1.153-.068A8.491,8.491,0,0,1,20.16,13.11Z" transform="translate(-15.881 -6.954)" fill="#fefefe" fill-rule="evenodd"/>
    <path id="Path_391" data-name="Path 391" d="M23.656,18.561h0c-.2-.088-.326-.521-.326-.521a6.715,6.715,0,0,0,3.324.375,4.694,4.694,0,0,1,2.4,0,23.84,23.84,0,0,1-2.53.487C26.191,18.872,23.656,18.561,23.656,18.561Z" transform="translate(-17.509 -9.485)" fill="#97d1e3" fill-rule="evenodd"/>
    <path id="Path_392" data-name="Path 392" d="M35.487,22.914s-.117-.389-.185-.53l-.107-.234a3.941,3.941,0,0,1,1.762,1.416,3.528,3.528,0,0,1,.963,2.17l-.127.229.18.2s-.287,1.387-.647,2.56a6.686,6.686,0,0,1-1.353,2.195L35,30.486Z" transform="translate(-23.5 -11.595)" fill="#684388" fill-rule="evenodd"/>
    <path id="Path_393" data-name="Path 393" d="M25.09,20.145l.18-.238a6.275,6.275,0,0,1,2.229-.068,12.487,12.487,0,0,0,2.6-.039l.049.136a5.012,5.012,0,0,1-1.406.224,7.976,7.976,0,0,1-2.049,0s-.243.078,1,.238a5.869,5.869,0,0,0,2.156-.1,6.691,6.691,0,0,1-1.319.647c-.764.277-3.718-.341-3.718-.341l-.107-.136a3.918,3.918,0,0,0,.428.058,3.762,3.762,0,0,1,.389.049S25.187,20.253,25.09,20.145Z" transform="translate(-18.217 -10.389)" fill="#a4d404" fill-rule="evenodd"/>
    <path id="Path_394" data-name="Path 394" d="M16.257,11.75a1.815,1.815,0,0,0-.516,1.543c.117,1,.165,1.654.165,1.654a3.547,3.547,0,0,0,.973,1.7,7.449,7.449,0,0,0,2.71,1.382,4.759,4.759,0,0,0,1.255-.384l-.044-.71S19,16.446,18.772,15.876a6.326,6.326,0,0,0-.4-.866l-1.236-.384s-.219-.574-.321-.886a3.635,3.635,0,0,1-.131-.623l-.088-.136c0-.277.054-.453.054-.6l-.17-.117a1.625,1.625,0,0,0-.049.175,3.474,3.474,0,0,1-.131.433l.112-.973Z" transform="translate(-13.603 -6.256)" fill="#2f112d" fill-rule="evenodd"/>
    <path id="Path_395" data-name="Path 395" d="M31.324,23.435l-.165-.3a7.2,7.2,0,0,1,1.5-.238,2.968,2.968,0,0,1,.734.092l.239.263-.034-.224a6.9,6.9,0,0,1,.725.973,7.786,7.786,0,0,1,.939,2.837c.136.949-4.17-2.9-4.17-2.9Z" transform="translate(-21.493 -11.98)" fill="#d65b32" fill-rule="evenodd"/>
    <path id="Path_396" data-name="Path 396" d="M15.844,18.093a3.893,3.893,0,0,1-.428-.686,2.993,2.993,0,0,1-.311-.837l-.754,1a4.282,4.282,0,0,0,.433,1.538,2.574,2.574,0,0,1,.141,2.3,3.377,3.377,0,0,1-.487,1.075l.185.336a14.983,14.983,0,0,0,.487-1.533,4.2,4.2,0,0,0,.175-.871,17.954,17.954,0,0,1-.146,2.112,6.554,6.554,0,0,1-.18,1.158l.365.881a11.513,11.513,0,0,0,.146-1.946c-.044-.793.1.861.229,1.669s-.112,2.613,1.762,3.26S15.844,18.093,15.844,18.093Z" transform="translate(-12.899 -8.731)" fill="#2f112d" fill-rule="evenodd"/>
    <path id="Path_397" data-name="Path 397" d="M24.69,20.145a1.426,1.426,0,0,0-.7-.443c-.521-.18-.8-.248-.8-.248a5.353,5.353,0,0,0,1.849-.044,4,4,0,0,0,1.513-.516l-.146-.146a2.19,2.19,0,0,1-1.3.487c-.754,0-1.075-.457-2.311-.487a5.012,5.012,0,0,1-1.99-.433s.754.487,2.92.092a9.46,9.46,0,0,1,3.119-.2,5.932,5.932,0,0,0-2.161-.448,15.826,15.826,0,0,1-4.5-.662,6.881,6.881,0,0,1-1.4-.774l-.063.72a6.268,6.268,0,0,0,.691.584c.151.058.487.146.487.146h-.861l.788.973a3.09,3.09,0,0,0,1.041.375s2.029.681,2.735,1.046A.934.934,0,0,0,24.69,20.145Z" transform="translate(-15.137 -8.602)" fill="#1d6b75" fill-rule="evenodd"/>
    <path id="Path_398" data-name="Path 398" d="M22.927,23.018a2.321,2.321,0,0,0-.389-.535,1.382,1.382,0,0,0-.414-.316,7.086,7.086,0,0,0,.866.248,1.757,1.757,0,0,0,.759.073l-.034-.063s-.219.1-.759-.136a8.335,8.335,0,0,1-1.046-.6,8.355,8.355,0,0,1,1.908.418,5.618,5.618,0,0,1,1.946.749,1.893,1.893,0,0,0,.618-.044c.457-.073-.039.876-.438,1.041a13.494,13.494,0,0,1-2.842-.248Z" transform="translate(-16.78 -11.359)" fill="#c24a9d" fill-rule="evenodd"/>
    <path id="Path_399" data-name="Path 399" d="M17,22.549s.054-.905.029-1.484,0-1.835,0-1.835a5.518,5.518,0,0,0,1.056,1.2c.453.3,1.061.418,1.377.8s-.837,1.7-.837,1.7Z" transform="translate(-14.259 -10.096)" fill="#d65b32" fill-rule="evenodd"/>
    <path id="Path_400" data-name="Path 400" d="M19.125,22.6v.195c0,.107-.195.092-.759.092s-.618-.122-.618-.122a1.056,1.056,0,0,0,.19.3.725.725,0,0,0,.2.127,2.22,2.22,0,0,1-.273,0,.667.667,0,0,1-.185-.034,4.32,4.32,0,0,0,.112.487c.044.107.2.054.2.054l.127.136c.107.107,1.985.258,2.321.487a1.09,1.09,0,0,0,.676.229l-.073-.589a2.024,2.024,0,0,0-.487-.735C20.23,23.014,19.422,22.9,19.125,22.6Z" transform="translate(-14.608 -11.826)" fill="#ba0173" fill-rule="evenodd"/>
    <path id="Path_401" data-name="Path 401" d="M23.817,33.816a3.27,3.27,0,0,1-1.543.535,2.54,2.54,0,0,1-2.248-.8,14.453,14.453,0,0,1-1.041-1.562l-.141-.151h.146a8.861,8.861,0,0,1-.73-1.085c-.273-.487-.881-2.92-1.178-3.839a6.229,6.229,0,0,1-.044-2.4l.195-.049.277.326a.185.185,0,0,0,.141.044l-.054.078a1.46,1.46,0,0,0,1.032.117,5.552,5.552,0,0,0,1.158-.365,3.056,3.056,0,0,1,.589.2.365.365,0,0,1,.156.321,2.5,2.5,0,0,0,.151-.657v-.462s.112-.209.822-.253a3.893,3.893,0,0,1,1.007.034,2.136,2.136,0,0,0,.185.574c.107.156.209.029.827-.1s0,2.71,0,3.893.029,4.414.029,4.414Z" transform="translate(-14.23 -12.444)" fill="#f29156" fill-rule="evenodd"/>
    <path id="Path_402" data-name="Path 402" d="M25.921,39.667a1.693,1.693,0,0,1-1.1.613c-.852.195-1.192,0-1.421.365a.526.526,0,0,0,.156.672,14.553,14.553,0,0,0,2.686-1.08c.35-.345.521-1.046.438-1.017a3.406,3.406,0,0,1-.487.029Z" transform="translate(-17.511 -20.358)" fill="#fdcd9b" fill-rule="evenodd"/>
    <path id="Path_403" data-name="Path 403" d="M22.074,37.1a.847.847,0,0,1-.243.151.735.735,0,0,1-.151,0,.973.973,0,0,0,.088.161.706.706,0,0,0,.2.156,2.2,2.2,0,0,1,.088.633.759.759,0,0,0,.642.871A4.277,4.277,0,0,0,24.2,39a1.061,1.061,0,0,1-.725-.365C23.125,38.282,22.074,37.1,22.074,37.1Z" transform="translate(-16.662 -19.271)" fill="#2f112d" fill-rule="evenodd"/>
    <path id="Path_404" data-name="Path 404" d="M20.185,29.056a5.64,5.64,0,0,1,.273-1.46,1.747,1.747,0,0,0-.034-1.226l-.973.092-.224.024-.1-.078a1.372,1.372,0,0,1-.453.17,8.652,8.652,0,0,1-.856.127s-.6.38.209,1.946c.55,1.08.457,3.689,2.112,2.774a1.4,1.4,0,0,1,1.168.054,5.822,5.822,0,0,0,1.762-.973c.326-.438-.4-1.285-.4-1.285Z" transform="translate(-14.568 -13.762)" fill="#eed489" fill-rule="evenodd"/>
    <path id="Path_405" data-name="Path 405" d="M27.65,25.208s0,.107-.238-.073-.564.092-.793-.248a.832.832,0,0,0-.866-.321c-.3.024.555.852.657,1.119s2.136.209,2.7.161a3.815,3.815,0,0,0,1.148-.321l-.122-.3Z" transform="translate(-18.72 -12.824)" fill="#f4af72" fill-rule="evenodd"/>
    <path id="Path_406" data-name="Path 406" d="M24.107,34.83a1.694,1.694,0,0,0-.2-.1l-.1-.029a2.7,2.7,0,0,1,.345-.326c.17-.127.35-.131.448,0s.122.063.165-.195.068-.487.433-.389a.973.973,0,0,0,.745-.107l.039-.3a2.248,2.248,0,0,1,.355.3A3.5,3.5,0,0,1,25.274,34.9C24.871,35.074,24.291,35.088,24.107,34.83Z" transform="translate(-17.75 -17.366)" fill="#fffab8" fill-rule="evenodd"/>
    <path id="Path_407" data-name="Path 407" d="M24.7,32.53l-.263.078s-.219-.165-.428.122-.078.418-.282.292c-.341-.219-1.1,1-1.348-.107a2.92,2.92,0,0,1,.248-1.625c.175-.321,2.384.608,2.384.608Z" transform="translate(-17.009 -16.252)" fill="#f29156" fill-rule="evenodd"/>
    <path id="Path_408" data-name="Path 408" d="M25.585,29.073a.686.686,0,0,1-.642.156.8.8,0,0,0-.8-.068l-.394.18-.594-.56-.18-.365a1.114,1.114,0,0,1,.19-1.139,5.805,5.805,0,0,0,.71-2.078,1.46,1.46,0,0,1,.141-.516.779.779,0,0,1,.4-.107.457.457,0,0,1,.326.088s.175.9.881.779a1.825,1.825,0,0,1,.4-.039h0a1.139,1.139,0,0,1,.19,0,2.263,2.263,0,0,1,.608.2,5.839,5.839,0,0,0,1.26.058,1.1,1.1,0,0,0,.813-.4,1.489,1.489,0,0,1,.623-.054,1.3,1.3,0,0,1,.686.165s.292.18.657,1.333a5.16,5.16,0,0,1-.243,3.523c-.477,1.309-.915,1.46-.915,1.46v.18a2.7,2.7,0,0,0,.545-.521,2.647,2.647,0,0,0,.37-.618h.039a4.3,4.3,0,0,1-.876,1.411,10.671,10.671,0,0,1-3.406,2.268c-1.119.453-1.611-.024-2.156.034a.92.92,0,0,1-.905-.521.608.608,0,0,1,.078-.307s2.676.268,3.358-.307c.418-.35.122-2.813-.18-4.706Z" transform="translate(-17.287 -12.84)" fill="#fdcd9b" fill-rule="evenodd"/>
    <path id="Path_409" data-name="Path 409" d="M26.239,33.778a.73.73,0,0,0-.589-.044c.029-.068.078-.161.078-.161a3.454,3.454,0,0,1,.4,0c.151,0,.326.127.258.156Z" transform="translate(-18.7 -17.457)" fill="#ca2b41" fill-rule="evenodd"/>
    <path id="Path_410" data-name="Path 410" d="M22.825,31.3a1.241,1.241,0,0,0,0,1.241.6.6,0,0,0,.881.219s.073.092-.341-.307A1.231,1.231,0,0,1,22.825,31.3Z" transform="translate(-17.164 -16.293)" fill="#2f112d" fill-rule="evenodd"/>
    <path id="Path_411" data-name="Path 411" d="M24.375,25.41h.273s-.083.973,1.032.881,1.849.4,3.285-.088,1.645.487,1.679,2.146a5.125,5.125,0,0,1-1.324,4.161,5.433,5.433,0,0,1-4.146,2.151,3.834,3.834,0,0,1-1.752-.418,1.3,1.3,0,0,1,.423-.623c.307-.219,1.518-.272,1.976-.691s.453-.667.453-.667l-.263.058c-.165.034-1.08-.628-.715-1.333a4.311,4.311,0,0,0,.433-1.46s-.141.034-.594-.263-.462-.345-1.119-.161a.725.725,0,0,1-.774-1.148,16.112,16.112,0,0,0,1.134-2.545Z" transform="translate(-17.381 -13.269)" fill="#fffab8" fill-rule="evenodd"/>
    <path id="Path_412" data-name="Path 412" d="M28.023,33.158a.569.569,0,0,1,.024-.175s-.107.029-.448-.17a.6.6,0,0,0,.3-.209.487.487,0,0,0,.1-.414h.277a2.491,2.491,0,0,1-.248.968Z" transform="translate(-19.701 -16.75)" fill="#fdcd9b" fill-rule="evenodd"/>
    <path id="Path_413" data-name="Path 413" d="M30.077,23.967c-.156.248-.17.71-.457.871a.088.088,0,0,0,.049.078,1.732,1.732,0,0,0,.871-.37c.375-.292.487-.37.487-.37l-.049-.316A4.146,4.146,0,0,0,30.077,23.967Z" transform="translate(-20.738 -12.473)" fill="#ba0173" fill-rule="evenodd"/>
    <path id="Path_414" data-name="Path 414" d="M32.16,24.312l.024.058c.078.175,1.032-.307,1.032-.307l.029-.127s-.769-.083-1.085-.088a.9.9,0,0,1,.024.238A.832.832,0,0,1,32.16,24.312Z" transform="translate(-22.042 -12.468)" fill="#860162" fill-rule="evenodd"/>
    <path id="Path_415" data-name="Path 415" d="M18.3,24.75s-.068.122-.107.18a.389.389,0,0,1-.122.1.973.973,0,0,0,.136.117.486.486,0,0,0,.165,0l-.073.063a2.482,2.482,0,0,0,.827.282,5.392,5.392,0,0,0,1.28-.063,1.066,1.066,0,0,0-.049-.234A20.107,20.107,0,0,0,18.3,24.75Z" transform="translate(-14.808 -12.93)" fill="#860162" fill-rule="evenodd"/>
    <path id="Path_416" data-name="Path 416" d="M33.433,25.54a1.032,1.032,0,0,1-.4.487,1.835,1.835,0,0,1-.847.307l-.049-.034s-.282,0-.487.024a1.752,1.752,0,0,1-.652-.2l.092-.165a3.075,3.075,0,0,0,1.46.092,1.275,1.275,0,0,0,.326-.112S33.219,25.525,33.433,25.54Z" transform="translate(-21.447 -13.335)" fill="#ca2b41" fill-rule="evenodd"/>
    <path id="Path_417" data-name="Path 417" d="M19.917,23.461a1.972,1.972,0,0,1-.141.219,5.679,5.679,0,0,1-1.056-.063l.17-.209A3.976,3.976,0,0,1,19.917,23.461Z" transform="translate(-15.142 -12.235)" fill="#7c0032" fill-rule="evenodd"/>
    <path id="Path_418" data-name="Path 418" d="M26.569,29.48l-.161-.487s.316-.764,2.112-.9,1.946,0,1.946,0,.316.9.341,1.036-.623,1.241-1.139,2.73-1.221.487-2.214.7c-.9.18-.676.418-1.158.277-.058,0-.073-.258-.136-.277a7.785,7.785,0,0,0-1.7-.243l-.092-.229.117-.151.122.068.063.034-.034.122.112-.054a.287.287,0,0,0,.292-.083c.107-.131,0-.487.6-.647A1.584,1.584,0,0,0,26.569,29.48Z" transform="translate(-18.043 -14.619)" fill="#fefefe" fill-rule="evenodd"/>
    <path id="Path_419" data-name="Path 419" d="M29.73,37.9a.837.837,0,0,0,.38-.058c.151-.083.229,0,.326.136s.131.117.131.117l-.238.107a1.254,1.254,0,0,1-.253-.1l-.151.049C29.9,38.161,29.73,37.9,29.73,37.9Z" transform="translate(-20.795 -19.636)" fill="#f29156" fill-rule="evenodd"/>
    <path id="Path_420" data-name="Path 420" d="M34.085,25.456s-.161.185-.287.316a.53.53,0,0,1-.195.141h-.117v.073a2.851,2.851,0,0,1-.389.131,3.026,3.026,0,0,1-.74,0l-.088-.151s.229.029.487.039a2.336,2.336,0,0,0,.686-.146v-.122a2.194,2.194,0,0,1,.428-.36C33.929,25.364,34.085,25.456,34.085,25.456Z" transform="translate(-22.099 -13.252)" fill="#2f112d" fill-rule="evenodd"/>
    <path id="Path_421" data-name="Path 421" d="M22.8,25.318a2.74,2.74,0,0,0-.38.068c-.151.044-.17-.316-.17-.316s.35-.117.433-.131a.287.287,0,0,1,.185.073S22.951,25.3,22.8,25.318Z" transform="translate(-16.954 -13.026)" fill="#1d6b75" fill-rule="evenodd"/>
    <path id="Path_422" data-name="Path 422" d="M22.81,25.417a2.74,2.74,0,0,0-.38.068c-.1.024-.141-.112-.161-.219a.365.365,0,0,1,.277-.136.345.345,0,0,1,.331.248A.122.122,0,0,1,22.81,25.417Z" transform="translate(-16.965 -13.125)" fill="#a4d404" fill-rule="evenodd"/>
    <path id="Path_423" data-name="Path 423" d="M23.576,37.29s.433.1.866.175.589-.141.973,0a2.277,2.277,0,0,0,.667.122s-.1.336-.292.38a4.107,4.107,0,0,1-1.543.058,1.2,1.2,0,0,1-.808-.414Z" transform="translate(-17.565 -19.368)" fill="#2f112d" fill-rule="evenodd"/>
    <path id="Path_424" data-name="Path 424" d="M24.46,37.9a1.149,1.149,0,0,0,.034.151.944.944,0,0,0,.341.112.414.414,0,0,0,.219-.039l.034.049a.423.423,0,0,1-.2.044c-.165,0,.277.054.487.034a5.158,5.158,0,0,0,.637-.127v-.088a.248.248,0,0,0-.088.034h-.058a1.338,1.338,0,0,1,0-.165.455.455,0,0,0-.511-.161,1.684,1.684,0,0,1-.535.092,1.249,1.249,0,0,1-.307-.034Zm-.107-.083a.487.487,0,0,0-.131-.063.292.292,0,0,0-.1.034H24.09a.613.613,0,0,0,.083.063c.073.029.141.054.156.034s.015-.024.024-.068Z" transform="translate(-17.899 -19.594)" fill="#684388" fill-rule="evenodd"/>
    <path id="Path_425" data-name="Path 425" d="M23.418,38.051a2.219,2.219,0,0,0,1.032.136,4.545,4.545,0,0,0,.793-.141,5.523,5.523,0,0,1,.681-.117,2.087,2.087,0,0,1,.345.034,2.146,2.146,0,0,1-.944,1,2.18,2.18,0,0,1-2.238.141,1.4,1.4,0,0,1-.72-1.314l.657-.068a1.255,1.255,0,0,0,.2.185A1.806,1.806,0,0,1,23.418,38.051Z" transform="translate(-17.013 -19.589)" fill="#ba0173" fill-rule="evenodd"/>
    <path id="Path_426" data-name="Path 426" d="M25.433,38.3l.141-.034a5.524,5.524,0,0,1,.681-.117,2.088,2.088,0,0,1,.345.034,2.146,2.146,0,0,1-.944,1,2.433,2.433,0,0,1-.268.146c-.72.17-2.248.034-2.389-.842l.258-.195a4.38,4.38,0,0,0,2.175,0Z" transform="translate(-17.339 -19.81)" fill="#f56376" fill-rule="evenodd"/>
    <path id="Path_427" data-name="Path 427" d="M26.885,38.37a2.273,2.273,0,0,1-.813.861,6.784,6.784,0,0,1-2.287-.209.453.453,0,0,1,.034-.136c.034-.092.068-.219.068-.219a.973.973,0,0,0,.234.044h.3l.141.068.141-.092a10.6,10.6,0,0,0,1.46-.165C26.5,38.453,26.753,38.4,26.885,38.37Zm-3.158.414.058-.136-.1-.068a.857.857,0,0,0-.058.117c-.01.024.1.088.1.088Z" transform="translate(-17.662 -19.923)" fill="#f29156" fill-rule="evenodd"/>
    <path id="Path_428" data-name="Path 428" d="M27.21,38.46a1.99,1.99,0,0,1-.389.487c-.214.058-.448.1-.448.1C26.412,38.723,26.894,38.567,27.21,38.46Zm-2.433.375a.483.483,0,0,1-.024.161c-.024.044-.054.058-.156,0a.827.827,0,0,0-.3-.029s.058-.19.5-.131Zm.637-.112a7.022,7.022,0,0,0,1.041-.136v.063a1.46,1.46,0,0,1-.457.326,1.221,1.221,0,0,1-.511.088l-.092-.073-.112.088h-.156c-.063,0-.185-.107-.185-.107S25.171,38.849,25.414,38.723Z" transform="translate(-18.007 -19.969)" fill="#fdcd9b" fill-rule="evenodd"/>
    <path id="Path_429" data-name="Path 429" d="M21.92,36.883s.229-.19.487-.433.6-.331.808-.112.268.238.462.112.341-.311,1.027.068a4.287,4.287,0,0,0,.949.457,1.5,1.5,0,0,0,.487.083l-.156.112a2.4,2.4,0,0,1-.487,0l-.268-.088a4.307,4.307,0,0,0-.876-.156c-.3,0-.487.195-.876.034a1.066,1.066,0,0,0-.545-.1l-.078.112a1.1,1.1,0,0,0-.438.054A.688.688,0,0,1,21.92,36.883Z" transform="translate(-16.785 -18.815)" fill="#de3f43" fill-rule="evenodd"/>
    <path id="Path_430" data-name="Path 430" d="M23.16,36.35a.511.511,0,0,1,.686,0c.209.219.268.238.462.112s.341-.311,1.027.068l.594.321c-.423-.073-1.071-.618-1.431-.418-.224.127-.37.224-.676-.029A.6.6,0,0,0,23.16,36.35Z" transform="translate(-17.422 -18.818)" fill="#fdcd9b" fill-rule="evenodd"/>
    <path id="Path_431" data-name="Path 431" d="M21.92,37.053s.2-.165.428-.384a.623.623,0,0,1,.847.092c.423.365.827.136,1.46.229s.973.36,1.46.238l-.156.112a2.4,2.4,0,0,1-.487,0l-.243-.088a4.307,4.307,0,0,0-.876-.156c-.3,0-.487.195-.876.034a1.066,1.066,0,0,0-.545-.1l-.078.112a1.1,1.1,0,0,0-.438.054A.688.688,0,0,1,21.92,37.053Z" transform="translate(-16.785 -18.985)" fill="#7c0032" fill-rule="evenodd"/>
    <path id="Path_432" data-name="Path 432" d="M23.113,37.538h-.068l-.078.112a1.1,1.1,0,0,0-.438.054.487.487,0,0,1-.389-.078,1.3,1.3,0,0,0,.589-.068.973.973,0,0,1,.409,0Z" transform="translate(-16.898 -19.494)" fill="#2f112d" fill-rule="evenodd"/>
    <path id="Path_433" data-name="Path 433" d="M19.219,24.846a3.007,3.007,0,0,0,.808.073,2.954,2.954,0,0,0,.779-.092,2.486,2.486,0,0,0-.195-.409.891.891,0,0,0-1.027-.487C18.781,24.038,18.689,24.568,19.219,24.846Z" transform="translate(-15.228 -12.495)" fill="#506eb6" fill-rule="evenodd"/>
    <path id="Path_434" data-name="Path 434" d="M20.173,25.055h.38a2.954,2.954,0,0,0,.779-.092,2.486,2.486,0,0,0-.195-.409.915.915,0,0,0-.384-.394,1.766,1.766,0,0,0-.842.316A1.849,1.849,0,0,0,20.173,25.055Z" transform="translate(-15.753 -12.627)" fill="#b4d5b8" fill-rule="evenodd"/>
    <path id="Path_435" data-name="Path 435" d="M30.934,25.361c.672.088,1.4.336,1.946-.175a1.119,1.119,0,0,0,.238-.273,7.027,7.027,0,0,0-1.285-.414,1.737,1.737,0,0,0-.929.248,1.222,1.222,0,0,0-.175.238Z" transform="translate(-21.308 -12.801)" fill="#a4d404" fill-rule="evenodd"/>
    <path id="Path_436" data-name="Path 436" d="M31.38,25.529a2.637,2.637,0,0,0,1.6,0,.8.8,0,0,0-1.6,0Z" transform="translate(-21.642 -12.95)" fill="#fefefe" fill-rule="evenodd"/>
    <path id="Path_437" data-name="Path 437" d="M31.825,25.243a.623.623,0,0,0,.618-.423,1.022,1.022,0,0,1,.209.127c.175.117.438,0,.584-.1a.453.453,0,0,0,.185-.243h-.034s-.195.273-.443.156a2.019,2.019,0,0,0-1.46-.487,1.946,1.946,0,0,0-1.26.56s-.375.209-.438.258,0,.078.292.136a1.1,1.1,0,0,0,.4.039l-.141-.4a.589.589,0,0,1,.423-.3,2.214,2.214,0,0,1,.642-.073.555.555,0,0,0,.418.749Z" transform="translate(-20.812 -12.684)" fill="#2f112d" fill-rule="evenodd"/>
    <path id="Path_438" data-name="Path 438" d="M30.088,25.847l.112.024a1.771,1.771,0,0,0,.316.039c-.044-.073-.107-.195-.131-.248a.579.579,0,0,1-.029-.092,1.576,1.576,0,0,0-.238.122C30.088,25.711,30.083,25.779,30.088,25.847Z" transform="translate(-20.978 -13.351)" fill="#ad429b" fill-rule="evenodd"/>
    <path id="Path_439" data-name="Path 439" d="M33.407,24.73a.71.71,0,0,0-.136,0,.594.594,0,0,0-.044.433c.039.2.384.3.584.214a.438.438,0,0,0,.234-.321L33.8,24.91a.794.794,0,0,1-.039.092h0a.2.2,0,0,1-.248.068c-.175-.058-.092-.35-.092-.35Zm.414.156s.131.063.165.073a.253.253,0,0,0,.068.029l.024-.131a.267.267,0,0,0,0-.058h-.234A.316.316,0,0,0,33.82,24.885Z" transform="translate(-22.578 -12.915)" fill="#7c0032" fill-rule="evenodd"/>
    <path id="Path_440" data-name="Path 440" d="M33.5,24.74c.078,0,.058.063.068.1s-.112.024-.112.024S33.421,24.74,33.5,24.74Zm.1,0h.141a1.5,1.5,0,0,1,0,.161c0,.083-.107.112-.107.112a1.664,1.664,0,0,1-.034-.263Z" transform="translate(-22.705 -12.925)" fill="#fefefe" fill-rule="evenodd"/>
    <path id="Path_441" data-name="Path 441" d="M24.414,33.333a.711.711,0,0,1,.443-.034c.258.058.3.156.3.156l-.161.073a.355.355,0,0,0-.3-.156.8.8,0,0,0-.341.068Zm-.7.248a2.277,2.277,0,0,1-.336-.336,1.07,1.07,0,0,1-.1-.165l-.19.088a1.854,1.854,0,0,0,.321.268,2.224,2.224,0,0,0,.307.146Z" transform="translate(-17.386 -17.207)" fill="#2f112d" fill-rule="evenodd"/>
    <path id="Path_442" data-name="Path 442" d="M19.565,23.661s-.214.487.034.667c.161.122.71.127.842-.073a.214.214,0,0,0,.024-.151H20.6c.049.117.117.229,0,.316l.146.029a.448.448,0,0,0-.161-.487,2.219,2.219,0,0,0-1.217-.487,3.572,3.572,0,0,0-.973,0l.161-.146a2.876,2.876,0,0,1,1.976.56l-.18-.214a3.328,3.328,0,0,0-2.019-.443,2.954,2.954,0,0,0-.243.36.394.394,0,0,0,0,.234A.618.618,0,0,1,18,23.758a.4.4,0,0,1-.063-.1.857.857,0,0,0,.024.219c.024.054.243.073.243.073l-.063.107a2.165,2.165,0,0,0,.516.487,2.1,2.1,0,0,0,1.119.146,2.307,2.307,0,0,0,.443-.068v-.049c-.715.029-1.236.185-1.762-.418C18.485,24.147,18.393,23.6,19.565,23.661Z" transform="translate(-14.742 -12.143)" fill="#2f112d" fill-rule="evenodd"/>
    <path id="Path_443" data-name="Path 443" d="M21.567,24.34h-.185c-.029,0-.156.414.117.516a.735.735,0,0,0,.56-.049l-.131-.185a.375.375,0,0,1-.282,0C21.518,24.554,21.567,24.34,21.567,24.34Z" transform="translate(-16.481 -12.72)" fill="#7c0032" fill-rule="evenodd"/>
    <path id="Path_444" data-name="Path 444" d="M21.884,24.34c.063,0,.049.049.058.083s-.1,0-.1,0S21.821,24.34,21.884,24.34Zm.078,0h.117v.136c0,.073-.088.088-.088.088a1.586,1.586,0,0,1-.029-.219Z" transform="translate(-16.744 -12.72)" fill="#fefefe" fill-rule="evenodd"/>
    <path id="Path_445" data-name="Path 445" d="M21.92,37.59a.584.584,0,0,0,.521.088c.277-.107.316-.092.448.039a.847.847,0,0,0,.263.175h.088l-.049.1a1.363,1.363,0,0,1-.258-.2.764.764,0,0,0-.088-.092.7.7,0,0,0-.4.063.341.341,0,0,1-.375-.029Z" transform="translate(-16.785 -19.522)" fill="#2f112d" fill-rule="evenodd"/>
    <path id="Path_446" data-name="Path 446" d="M29.454,38.034l-.1-.034a1.032,1.032,0,0,1-.487.073,1.091,1.091,0,0,1-.418-.039s-.175.151-.209.17.277-.044.613-.063S29.191,38.165,29.454,38.034Z" transform="translate(-20.027 -19.733)" fill="#2f112d" fill-rule="evenodd"/>
    <path id="Path_447" data-name="Path 447" d="M25.62,38.145h.1a.224.224,0,0,1,.034.088.049.049,0,0,1,0,.049A.307.307,0,0,1,25.62,38.145Zm.214,0a1.431,1.431,0,0,0,.088.17,1.1,1.1,0,0,0,.268.024,1.08,1.08,0,0,0,.331-.092v-.141a.832.832,0,0,0-.686.029Z" transform="translate(-18.684 -19.756)" fill="#b373a8" fill-rule="evenodd"/>
    <path id="Path_448" data-name="Path 448" d="M24.627,27.309h.141a7.586,7.586,0,0,0,.375.832h0A1.849,1.849,0,0,1,25.26,29s.107-.088.19-.141a.3.3,0,0,1,.112-.044c.428.55.487.973.37,1.134a.487.487,0,0,1-.423.1s-.063-.453-.891-.292-1.158-.238-.818-.891S24.433,27.635,24.627,27.309Zm0-.063a.613.613,0,0,0,.136,0c.024,0,0-.146,0-.146a.175.175,0,0,0-.131.146Z" transform="translate(-17.682 -14.137)" fill="#fefefe" fill-rule="evenodd"/>
    <path id="Path_449" data-name="Path 449" d="M30.56,23.925l.156-.083a5.888,5.888,0,0,1,1.363-.044,2.526,2.526,0,0,1,1.158.438.272.272,0,0,1,.083.078h-.346a3.188,3.188,0,0,1-.637-.253l.054-.107A5.84,5.84,0,0,0,30.56,23.925Z" transform="translate(-21.221 -12.431)" fill="#2f112d" fill-rule="evenodd"/>
    <path id="Path_450" data-name="Path 450" d="M27.208,41a2.263,2.263,0,0,1,.487.769c.112.38-.487.487-1.377.487l-.083-.073a.647.647,0,0,1-.063-.1l-.185.175A2.672,2.672,0,0,1,25.2,42.1a1.863,1.863,0,0,1-.049-.3C25.637,41.633,26.537,41.292,27.208,41Z" transform="translate(-18.443 -21.273)" fill="#fefefe" fill-rule="evenodd"/>
    <path id="Path_451" data-name="Path 451" d="M28.276,30.269a1.606,1.606,0,0,0-.151-1.29,2.7,2.7,0,0,1-.277-1.3h.034a2.754,2.754,0,0,0,.273,1.28,1.616,1.616,0,0,1,.151,1.319Z" transform="translate(-19.827 -14.434)" fill="#fdcd9b"/>
    <path id="Path_452" data-name="Path 452" d="M20.313,30.766s.19-1.873.2-2.311a3.971,3.971,0,0,1,.092-.754s-1.207.326-1.382.384a.487.487,0,0,0-.248.19,14.12,14.12,0,0,0,1.168,2.55Z" transform="translate(-15.276 -14.445)" fill="#fffab8" fill-rule="evenodd"/>
    <path id="Path_453" data-name="Path 453" d="M21,37.99c.19,0,.263-.068.321.161a.209.209,0,0,1-.058.185S21,38.146,21,37.99Z" transform="translate(-16.313 -19.723)" fill="#f29156" fill-rule="evenodd"/>
    <path id="Path_454" data-name="Path 454" d="M17.05,21.523s.219-.243.8,0a10.555,10.555,0,0,1,2.19,1.08c.389.336.438.487.438.487a.822.822,0,0,0,.029-.2,1.46,1.46,0,0,0-.516-.589,2.769,2.769,0,0,0-.448-.3H19.4l-.024-.088s-.7-.394-1.09-.584C18.067,21.212,17.025,20.715,17.05,21.523Z" transform="translate(-14.284 -11.041)" fill="#2f112d" fill-rule="evenodd"/>
    <path id="Path_455" data-name="Path 455" d="M20.215,17.439s-.044-.4-.058-.511-.219-.258-.219-.258l-.268.258Z" transform="translate(-15.63 -8.782)" fill="#fefefe" fill-rule="evenodd"/>
    <path id="Path_456" data-name="Path 456" d="M38.63,21.911l.141-.311s.409.161.462.175l.336.044S38.932,22.057,38.63,21.911Z" transform="translate(-25.364 -11.313)" fill="#fefefe" fill-rule="evenodd"/>
    <path id="Path_457" data-name="Path 457" d="M38.893,9.694S37.813,8.181,37.2,7.412a6.526,6.526,0,0,0-1.226-1.2L35,6.594a5.02,5.02,0,0,1,1.645,1.173c1.114,1.027,1.985,2,1.985,2Zm-.248.156h.3a.7.7,0,0,1,.136.17c0,.044-.18.146-.18.146Z" transform="translate(-23.5 -3.412)" fill="#73c89e" fill-rule="evenodd"/>
    <path id="Path_458" data-name="Path 458" d="M35.7,15.228s-1.9-1.679-2.258-1.946-.8-.681-.8-.681l-.272.321s1.046.715,1.9,1.363S35.6,15.31,35.6,15.31Zm-.054.131s.083-.078.112-.078.107.127,0,.17Z" transform="translate(-22.15 -6.693)" fill="#fefefe" fill-rule="evenodd"/>
    <path id="Path_459" data-name="Path 459" d="M43.37,30.9a1.732,1.732,0,0,1,.384,0c.044,0-.088-.277-.088-.277h-.229Z" transform="translate(-27.797 -15.944)" fill="#506eb6" fill-rule="evenodd"/>
    <path id="Path_460" data-name="Path 460" d="M41.314,32.05s.311.151.409.19-.229.521-.365.847l-.277-.161Z" transform="translate(-26.621 -16.678)" fill="#fff" fill-rule="evenodd"/>
    <path id="Path_461" data-name="Path 461" d="M25.96,5.553a.72.72,0,0,0,.18-.1c.039-.029-.039-.17-.039-.17h-.224C25.823,5.28,25.96,5.553,25.96,5.553Z" transform="translate(-18.81 -2.935)" fill="#506eb6" fill-rule="evenodd"/>
    <path id="Path_462" data-name="Path 462" d="M16.363,5.968c-.759-.973-.341-1.6.35-2.156a8.764,8.764,0,0,1,.764-.535l.248-.165a5.4,5.4,0,0,0,1.212-1.061c.311-.365.438-.487,1.4-.545A2.368,2.368,0,0,0,22.431.46h.029a2.369,2.369,0,0,1-2.1,1.08c-.944.034-1.071.18-1.372.53a5.324,5.324,0,0,1-1.241,1.085c-.078.058-.165.112-.248.17a4.406,4.406,0,0,0-.759.511c-.681.545-1.09,1.173-.345,2.112Z" transform="translate(-13.724 -0.46)" fill="#1d6b75"/>
    <path id="Path_463" data-name="Path 463" d="M23.07,58.072a42.79,42.79,0,0,1,4.282-3.966,7.576,7.576,0,0,1,2.433-1.236,5.231,5.231,0,0,1,2.92.122,3.65,3.65,0,0,1,2.248,1.946,6.19,6.19,0,0,1,.487,3.406h-.034a6.136,6.136,0,0,0-.487-3.406A3.6,3.6,0,0,0,32.7,52.992a5.226,5.226,0,0,0-2.9-.122,7.3,7.3,0,0,0-2.433,1.236,42.773,42.773,0,0,0-4.277,3.956Z" transform="translate(-17.375 -27.289)" fill="#ee1176"/>
  </g>
  <path id="Path_464" data-name="Path 464" d="M43.585,6.491l.487-.054s-.185-.443-.272-.487-.38.092-.38.092Z" transform="translate(-27.823 -3.274)" fill="#a4d404" fill-rule="evenodd"/>
</svg>
