<svg xmlns="http://www.w3.org/2000/svg" width="18" height="20" viewBox="0 0 23.66 21.696">
    <defs>
        <style>
            .a {
                fill: #26a0da;
            }
            .b {
                fill: #d4d5db;
            }
            .c {
                fill: #ebeff2;
            }
            .d {
                fill: #647989;
            }
            .e {
                fill: #e56354;
            }
            .f {
                fill: #4ebd9e;
            }
            .g {
                fill: #fad362;
            }
            .h {
                fill: #304859;
            }
        </style>
    </defs>
    <g transform="translate(0 7.335)">
        <path class="a"
            d="M19.78,28.7c-.568-.047-1.136,0-1.656,0a2.029,2.029,0,0,1-.9-.047,2.1,2.1,0,0,1-.8-.379c-.473-.284-.946-.568-1.467-.852A24.414,24.414,0,0,0,5.679,25.1L5.3,26.614s.852.426.473,1.751c0,0-.8,3.88,1.562,4.921,0,0,4.4,2.65,7.1-.852,0,0,1.136-2.555,2.366-2.224s.946,3.123.946,3.123c.662,4.4,5.773,4.259,5.773,4.259,2.555.237,3.786-3.549,3.786-3.549.379-1.325,1.278-1.278,1.278-1.278l.379-1.514A24.664,24.664,0,0,0,19.78,28.7Z"
            transform="translate(-5.3 -25.1)" />
        <g transform="translate(0.895 1.058)">
            <path class="b"
                d="M13.584,28.171,10.6,27.413a2.4,2.4,0,0,0-2.934,1.7L7.29,30.631a3.11,3.11,0,0,0,2.224,3.786l1.278.331a4.056,4.056,0,0,0,4.969-2.886h0A3.08,3.08,0,0,0,13.584,28.171Z"
                transform="translate(-7.192 -27.336)" />
            <path class="b"
                d="M39.422,35.044l-2.981-.757a3,3,0,0,0-3.691,2.177h0a4.056,4.056,0,0,0,2.886,4.969l1.278.331A3.11,3.11,0,0,0,40.7,39.539l.379-1.514A2.37,2.37,0,0,0,39.422,35.044Z"
                transform="translate(-20.585 -30.944)" />
        </g>
        <g transform="translate(2.385 2.527)">
            <path class="c"
                d="M10.51,31.7c-.047,0-.095-.047-.142-.095-.047-.095-.047-.284.095-.331l1.42-.8c.095-.047.284-.047.331.095.047.095.047.284-.095.331l-1.42.8Z"
                transform="translate(-10.34 -30.44)" />
            <path class="c"
                d="M10.81,35.215c-.047,0-.095-.047-.142-.095-.047-.095-.047-.284.095-.331l.852-.521c.095-.047.284-.047.331.095.047.095.047.284-.095.331L11,35.215Z"
                transform="translate(-10.498 -32.442)" />
            <path class="c"
                d="M14.41,32.746c-.047,0-.095-.047-.142-.095-.047-.095-.047-.284.095-.331l1.42-.852c.095-.047.284-.047.331.095s.047.284-.095.331l-1.42.852Z"
                transform="translate(-12.395 -30.967)" />
            <path class="c"
                d="M46.326,40.572a.284.284,0,0,0,.189-.047.293.293,0,0,0,.095-.331l-.8-1.42a.244.244,0,1,0-.426.237l.8,1.42A.151.151,0,0,0,46.326,40.572Z"
                transform="translate(-28.789 -34.771)" />
            <path class="c"
                d="M44.842,43.9a.285.285,0,0,0,.189-.047.293.293,0,0,0,.095-.331l-.521-.852a.244.244,0,0,0-.426.237l.521.852C44.747,43.857,44.794,43.857,44.842,43.9Z"
                transform="translate(-28.157 -36.825)" />
            <path class="c"
                d="M42.373,39.672a.285.285,0,0,0,.189-.047.293.293,0,0,0,.095-.331l-.852-1.42a.244.244,0,0,0-.426.237l.852,1.42Z"
                transform="translate(-26.682 -34.297)" />
        </g>
    </g>
    <g transform="translate(8.683 5.877)">
        <g transform="translate(0 14.873)">
            <path class="d"
                d="M23.721,54.325a.229.229,0,0,1,0-.331l.426-.473a.286.286,0,0,1,.379,0,.229.229,0,0,1,0,.331l-.426.473A.286.286,0,0,1,23.721,54.325Z"
                transform="translate(-23.65 -53.45)" />
        </g>
        <path class="e"
            d="M50.63,24.234,49.4,23.146l.9-.994a.435.435,0,0,1,.568-.047l.615.521a.389.389,0,0,1,.047.568Z"
            transform="translate(-37.215 -22.019)" />
        <path class="a"
            d="M41.045,30.64,39.2,28.984l4.306-4.732a.435.435,0,0,1,.568-.047l1.278,1.136a.389.389,0,0,1,.047.568Z"
            transform="translate(-31.842 -23.125)" />
        <path class="f"
            d="M24.952,43.717l-.379-.379a.359.359,0,0,1-.047-.473L31.435,34.3l1.845,1.656-7.855,7.76A.316.316,0,0,1,24.952,43.717Z"
            transform="translate(-24.077 -28.489)" />
        <path class="g"
            d="M40.425,35.909l-1.751-1.562a.364.364,0,0,1-.047-.473h0a.364.364,0,0,1,.473-.047l1.751,1.562a.364.364,0,0,1,.047.473h0A.29.29,0,0,1,40.425,35.909Z"
            transform="translate(-31.505 -28.204)" />
        <path class="h"
            d="M48.713,29.079c0-.095,0-.237-.095-.284l-.047-.047-.047-.047-.284.331.095.095a.293.293,0,0,1,.095.331,7.709,7.709,0,0,1-2.129,2.6l-.142-.142-.237.284a.288.288,0,0,0,0,.379l.189.189a.144.144,0,0,0,.189,0C47.956,30.877,48.618,29.741,48.713,29.079Z"
            transform="translate(-35.345 -25.539)" />
    </g>
    <path class="e"
        d="M36.787,9.6h-6.01A1.272,1.272,0,0,0,29.5,10.878v4.59a1.272,1.272,0,0,0,1.278,1.278h.379l-.473,1.23a.167.167,0,0,0,.189.189l2.981-1.42h2.981a1.272,1.272,0,0,0,1.278-1.278v-4.59A1.345,1.345,0,0,0,36.787,9.6Z"
        transform="translate(-18.049 -9.6)" />
    <path class="g"
        d="M35.737,11.521l.757,1.514c.047.047.095.095.142.095l1.656.237a.165.165,0,0,1,.095.284L37.2,14.833a.174.174,0,0,0-.047.142l.284,1.656c.047.142-.142.237-.237.189l-1.467-.757a.089.089,0,0,0-.142,0l-1.467.757c-.142.047-.284-.047-.237-.189l.284-1.656a.174.174,0,0,0-.047-.142L32.945,13.65a.165.165,0,0,1,.095-.284L34.7,13.13c.047,0,.095-.047.142-.095l.757-1.514C35.5,11.426,35.642,11.426,35.737,11.521Z"
        transform="translate(-19.838 -10.575)" />
</svg>