<svg id="Layer_1" data-name="Layer 1" xmlns="http://www.w3.org/2000/svg" xmlns:xlink="http://www.w3.org/1999/xlink" viewBox="0 0 643.5 351"><defs><style>.cls-1{fill:url(#linear-gradient);}.cls-2{fill:#fff4d2;}.cls-2,.cls-3,.cls-4,.cls-5{fill-rule:evenodd;}.cls-3{fill:#eff6ff;}.cls-4{fill:#ffe6a6;}.cls-5{fill:#d9eeff;}</style><linearGradient id="linear-gradient" x1="478.18" y1="446.45" x2="165.32" y2="-95.45" gradientUnits="userSpaceOnUse"><stop offset="0" stop-color="#000e42"/><stop offset="1" stop-color="#06003f"/></linearGradient></defs><rect class="cls-1" width="643.5" height="351"/><path class="cls-2" d="M1206.41,456.7a106.12,106.12,0,0,1,4,145.86c-33.12,23.55-75.05,34.74-75,35.19A106.24,106.24,0,0,1,1037,580.17c-3.94-7.7-2.29-9.27,4.57-4.13a95.87,95.87,0,0,0,134.15-134.17c-5.12-6.86-3.55-8.51,4.13-4.57a106,106,0,0,1,26.59,19.4Z" transform="translate(-653 -365)"/><path class="cls-3" d="M1105,499.29a23.54,23.54,0,0,0-23.54,23.55,23.82,23.82,0,0,0,.29,3.71,13.46,13.46,0,0,0,3.07,26.56h43.72a20.19,20.19,0,1,0,0-40.37,17.8,17.8,0,0,0-2.2.13A23.53,23.53,0,0,0,1105,499.29Z" transform="translate(-653 -365)"/><path class="cls-3" d="M1179,588.42a21.54,21.54,0,0,1,20,13.42,17.35,17.35,0,0,1,21.84,14.1,20.78,20.78,0,0,1,0,41.56h-64.37a21.09,21.09,0,0,1-21.06-19.75c0-.45,0-.89,0-1.34a21.05,21.05,0,0,1,8.63-17,16.35,16.35,0,0,1-.58-4.34A16.07,16.07,0,0,1,1159.45,599l1,0A21.55,21.55,0,0,1,1179,588.42Z" transform="translate(-653 -365)"/><path class="cls-2" d="M1149.37,459.35l3.78,7.45,7.44,3.76c1,.51,1,.89,0,1.4l-7.43,3.77-3.77,7.44c-.51,1-.89,1-1.4,0l-3.77-7.44-7.44-3.77c-1-.51-1-.89,0-1.4l7.44-3.76,3.77-7.45c.51-1,.88-1,1.39,0Z" transform="translate(-653 -365)"/><path class="cls-2" d="M1117.86,415.9l3.78,7.45,7.44,3.77c1,.51,1,.89,0,1.39l-7.43,3.78-3.78,7.44c-.51,1-.88,1-1.39,0l-3.78-7.44-7.44-3.78c-1-.5-1-.88,0-1.39l7.43-3.77,3.78-7.44C1117,414.91,1117.35,414.9,1117.86,415.9Z" transform="translate(-653 -365)"/><path class="cls-4" d="M1210.38,602.56a106.17,106.17,0,0,0-30.56-165.26c-7.68-3.94-9.25-2.29-4.13,4.57,4.54,6.07,14.57,12.56,18.93,19.32,30.24,46.77,35.18,86.48.78,134.82a21.29,21.29,0,0,1,3.55,5.83,17.43,17.43,0,0,1,11.43.72Z" transform="translate(-653 -365)"/><path class="cls-5" d="M1241.57,636.72a20.78,20.78,0,0,0-20.78-20.78,17.34,17.34,0,0,0-17.16-14.74,17.15,17.15,0,0,0-4.67.64,21.79,21.79,0,0,0-3.55-5.83,21.59,21.59,0,0,0-33.2.4c18.21,4.93,31.5,20.38,31.5,38.67a37.78,37.78,0,0,1-7.42,22.42h34.5a20.79,20.79,0,0,0,20.78-20.78Z" transform="translate(-653 -365)"/><path class="cls-5" d="M1128.52,553.11a20.19,20.19,0,1,0,0-40.37,17.8,17.8,0,0,0-2.2.13A23.53,23.53,0,0,0,1105,499.29a23.15,23.15,0,0,0-7.24,1.14c9.24,5.66,15.48,16.4,15.48,28.71a34.26,34.26,0,0,1-9.55,24Z" transform="translate(-653 -365)"/><path class="cls-2" d="M1095.77,465.23l-3.77,7.44-7.44,3.77c-1,.51-1,.89,0,1.4l7.44,3.77,3.77,7.43c.51,1,.89,1,1.4,0l3.76-7.44,7.45-3.78c1-.51,1-.88,0-1.39l-7.45-3.77-3.76-7.44c-.51-1-.89-1-1.4,0Z" transform="translate(-653 -365)"/><path class="cls-2" d="M1068.78,433.48l-3.77,7.44-7.44,3.78c-1,.51-1,.88,0,1.39l7.44,3.77,3.77,7.44c.51,1,.89,1,1.4,0l3.77-7.45,7.44-3.77c1-.51,1-.88,0-1.39l-7.44-3.78-3.77-7.43C1069.67,432.48,1069.29,432.47,1068.78,433.48Z" transform="translate(-653 -365)"/></svg>