<svg id="email" xmlns="http://www.w3.org/2000/svg" width="36" height="25" viewBox="0 0 36 25">
  <g id="Group_15" data-name="Group 15" transform="translate(0 0)">
    <path id="Path_35" data-name="Path 35" d="M32.836,80.609H3.164A3.189,3.189,0,0,0,0,83.816V102.4a3.189,3.189,0,0,0,3.164,3.207H32.836A3.189,3.189,0,0,0,36,102.4V83.816A3.189,3.189,0,0,0,32.836,80.609Zm-.413,2.138L32,83.1,19.255,93.861a1.942,1.942,0,0,1-2.511,0L4,83.1l-.422-.356ZM2.109,84.291l10.385,8.765L2.109,100.061Zm30.727,19.18H3.164a1.06,1.06,0,0,1-1.034-.856l12.055-8.132,1.21,1.021a4.029,4.029,0,0,0,5.21,0l1.21-1.021,12.055,8.132A1.06,1.06,0,0,1,32.836,103.471Zm1.055-3.41L23.506,93.056l10.385-8.765Z" transform="translate(0 -80.609)" fill="#fff"/>
  </g>
</svg>
