<svg id="google-hangouts" xmlns="http://www.w3.org/2000/svg" width="24.999" height="24.999" viewBox="0 0 24.999 24.999">
  <path id="Path_31" data-name="Path 31" d="M5.54,146.624l-.87,3.249-3.18.067A12.521,12.521,0,0,1,1.4,138.268h0l2.832.519L5.47,141.6a7.46,7.46,0,0,0,.07,5.022Z" transform="translate(0 -131.517)" fill="#fbbb00"/>
  <path id="Path_32" data-name="Path 32" d="M273.634,208.176a12.495,12.495,0,0,1-4.456,12.083h0l-3.566-.182-.5-3.151a7.449,7.449,0,0,0,3.205-3.8h-6.684v-4.945h12.006Z" transform="translate(-248.854 -198.012)" fill="#518ef8"/>
  <path id="Path_33" data-name="Path 33" d="M49.343,316.548h0a12.5,12.5,0,0,1-18.835-3.824l4.051-3.316a7.434,7.434,0,0,0,10.712,3.806Z" transform="translate(-29.019 -294.302)" fill="#28b446"/>
  <path id="Path_34" data-name="Path 34" d="M47.7,2.878,43.655,6.193A7.433,7.433,0,0,0,32.7,10.085L28.625,6.751h0A12.5,12.5,0,0,1,47.7,2.878Z" transform="translate(-27.226)" fill="#f14336"/>
</svg>
