<svg id="Layer_1" data-name="Layer 1" xmlns="http://www.w3.org/2000/svg" xmlns:xlink="http://www.w3.org/1999/xlink" viewBox="0 0 641.67 350"><defs><style>.cls-1{fill:url(#linear-gradient);}.cls-2{fill:#fde588;}.cls-3{fill:#fdd76f;}.cls-4{fill:#eff6ff;}.cls-5{fill:#d9eeff;}</style><linearGradient id="linear-gradient" x1="164.85" y1="445.17" x2="476.82" y2="-95.17" gradientUnits="userSpaceOnUse"><stop offset="0" stop-color="#92bcff"/><stop offset="0.04" stop-color="#8fbeff" stop-opacity="0.96"/><stop offset="0.52" stop-color="#74d0ff" stop-opacity="0.56"/><stop offset="0.85" stop-color="#63dcff" stop-opacity="0.3"/><stop offset="1" stop-color="#5ce0ff" stop-opacity="0.2"/></linearGradient></defs><rect class="cls-1" width="641.67" height="350"/><circle class="cls-2" cx="152.79" cy="190.46" r="71.73"/><path class="cls-3" d="M863.52,555.46A71.73,71.73,0,0,1,732.63,596a71.74,71.74,0,0,0,93.13-103.76A71.72,71.72,0,0,1,863.52,555.46Z" transform="translate(-639 -365)"/><path class="cls-4" d="M886.75,572v0a30.76,30.76,0,0,0-61.52,0v0a29.19,29.19,0,0,0-28,29.07h0a29.18,29.18,0,0,0,29.09,29.1h59.34a29.18,29.18,0,0,0,29.1-29.1h0A29.19,29.19,0,0,0,886.75,572Z" transform="translate(-639 -365)"/><path class="cls-5" d="M914.76,601a29.18,29.18,0,0,1-29.1,29.1H826.33A29.24,29.24,0,0,1,798.66,610a28.82,28.82,0,0,0,16.61,5.25h59.34a29.18,29.18,0,0,0,29.1-29.09,28.67,28.67,0,0,0-1.43-9A29.2,29.2,0,0,1,914.76,601Z" transform="translate(-639 -365)"/><path class="cls-2" d="M791.79,456.53a5.38,5.38,0,0,0,5.38-5.38V428.72a5.38,5.38,0,1,0-10.76,0v22.43A5.38,5.38,0,0,0,791.79,456.53Z" transform="translate(-639 -365)"/><path class="cls-2" d="M714.23,485.51a5.38,5.38,0,1,0,7.61-7.61L706,462a5.38,5.38,0,1,0-7.61,7.61Z" transform="translate(-639 -365)"/><path class="cls-2" d="M665.05,560.84h22.43a5.38,5.38,0,0,0,0-10.76H665.05a5.38,5.38,0,1,0,0,10.76Z" transform="translate(-639 -365)"/><path class="cls-2" d="M865.55,487.08a5.38,5.38,0,0,0,3.81-1.57l15.86-15.87a5.38,5.38,0,0,0-7.61-7.61L861.74,477.9a5.38,5.38,0,0,0,3.81,9.18Z" transform="translate(-639 -365)"/><path class="cls-4" d="M763.36,605.14h0a19.66,19.66,0,1,0-39.32,0h0a18.65,18.65,0,0,0-17.89,18.58h0a18.65,18.65,0,0,0,18.59,18.6h37.92a18.65,18.65,0,0,0,18.6-18.6h0A18.66,18.66,0,0,0,763.36,605.14Z" transform="translate(-639 -365)"/><path class="cls-5" d="M781.25,623.72a18.65,18.65,0,0,1-18.59,18.6H724.74a18.64,18.64,0,0,1-18.55-17.41,18.46,18.46,0,0,0,11.46,4h37.92a18.64,18.64,0,0,0,18.59-18.59c0-.4,0-.8,0-1.19a19.3,19.3,0,0,1,1.9,1.71A18.5,18.5,0,0,1,781.25,623.72Z" transform="translate(-639 -365)"/></svg>